<svg xmlns="http://www.w3.org/2000/svg" fill="none" viewBox="0 0 162 92" height="92" width="162">
<g clip-path="url(#clip0_3829_21313)">
<path fill="white" d="M111.449 63.2354C110.886 63.0601 110.527 62.7178 110.494 62.3254L110.478 62.1365L110.773 62.1199C111.063 62.1036 111.071 62.1075 111.212 62.3251C111.395 62.6064 111.627 62.7227 112.077 62.7578C112.853 62.8185 113.32 62.4275 113.429 61.6242C113.491 61.1686 113.441 61.1247 113.145 61.3776C112.848 61.6323 112.575 61.7229 112.103 61.7229C111.409 61.7229 110.812 61.3554 110.526 60.752C110.116 59.8869 110.257 58.7498 110.851 58.1174C111.23 57.713 111.584 57.5657 112.179 57.5635C112.576 57.5621 112.67 57.582 112.936 57.7245C113.104 57.814 113.253 57.9189 113.268 57.9577C113.323 58.0962 113.447 58.0275 113.464 57.8489C113.482 57.6743 113.49 57.6693 113.778 57.6531C114.05 57.6378 114.076 57.6471 114.108 57.7703C114.127 57.844 114.133 58.8068 114.12 59.91C114.102 61.6132 114.084 61.9592 114.001 62.203C113.861 62.6193 113.59 62.9349 113.21 63.1238C112.926 63.2653 112.814 63.2873 112.306 63.3032C111.892 63.3161 111.646 63.2966 111.449 63.2354H111.449ZM112.716 61.0065C113.193 60.7697 113.426 60.2379 113.386 59.4746C113.348 58.7454 113.073 58.3315 112.534 58.1902C111.858 58.013 111.285 58.3964 111.092 59.155C111.012 59.4702 111.008 59.5892 111.064 59.9366C111.132 60.3641 111.271 60.6928 111.45 60.8505C111.774 61.1355 112.321 61.2028 112.716 61.0065H112.716ZM73.1149 60.47L73.1295 57.6697H73.4405C73.7075 57.6697 73.754 57.6852 73.7697 57.78C73.8116 58.033 73.833 58.042 74.0223 57.8867C74.4125 57.5666 75.0013 57.4631 75.5981 57.6097C76.5549 57.8448 77.0589 58.6499 76.9996 59.8484C76.9655 60.5373 76.7852 60.9491 76.3471 61.3388C75.9603 61.6827 75.5831 61.8026 75.0043 61.7657C74.5968 61.7397 74.1166 61.5582 73.9555 61.3693C73.915 61.3218 73.8592 61.2965 73.8316 61.3131C73.8039 61.3298 73.7813 61.7724 73.7813 62.2969V63.2504L73.4407 63.2604L73.1001 63.2703L73.1149 60.47ZM75.5238 61.0866C75.808 60.971 75.9226 60.8603 76.0898 60.5394C76.2824 60.1699 76.3292 59.5059 76.1945 59.055C75.9369 58.193 74.9181 57.8619 74.2582 58.4257C73.9406 58.697 73.8214 58.9781 73.793 59.5225C73.738 60.5786 74.1712 61.1476 75.0442 61.1658C75.1932 61.1689 75.4091 61.1332 75.5238 61.0866ZM43.3611 61.7495C42.4458 61.5561 41.7741 60.8882 41.5 59.8991C41.3667 59.418 41.3638 58.4517 41.494 57.9796C41.6937 57.2567 42.0716 56.7166 42.6185 56.3727C43.1005 56.0695 43.551 55.9674 44.2693 55.9985C44.7754 56.0204 44.9103 56.0477 45.2288 56.1927C45.4326 56.2855 45.7043 56.4537 45.8326 56.5665C46.0854 56.7888 46.4033 57.3541 46.4231 57.6166C46.4355 57.7799 46.4354 57.78 46.0817 57.7964L45.728 57.8128L45.5934 57.5167C45.3264 56.9292 44.8119 56.6256 44.0834 56.6256C43.1282 56.6256 42.4544 57.1931 42.2399 58.1781C42.0299 59.1425 42.2601 60.1541 42.8111 60.688C43.4298 61.2874 44.5544 61.339 45.1716 60.7964C45.4365 60.5636 45.5457 60.3748 45.6722 59.9306L45.7665 59.5998L46.0951 59.583C46.2758 59.5738 46.4485 59.5904 46.4788 59.6199C46.5145 59.6547 46.5093 59.7769 46.4639 59.9675C46.1322 61.359 44.8895 62.0726 43.3609 61.7495L43.3611 61.7495ZM64.8328 61.7735C63.5846 61.535 62.7883 60.4306 62.7883 58.938C62.7883 57.6506 63.361 56.6482 64.3552 56.1956C64.688 56.044 64.8098 56.0197 65.3424 55.9983C66.049 55.97 66.5385 56.0822 66.9966 56.3775C67.3197 56.5857 67.6744 57.0486 67.7727 57.3904C67.8797 57.7621 67.8366 57.8162 67.4492 57.7965L67.1232 57.78L66.9903 57.5042C66.699 56.8999 66.226 56.6261 65.4784 56.6292C64.8975 56.6316 64.5347 56.7773 64.1736 57.1529C63.7583 57.5849 63.5816 58.1011 63.5805 58.8851C63.5792 59.9369 63.9419 60.6534 64.6464 60.99C64.9265 61.1238 65.0348 61.1438 65.4796 61.1438C65.9168 61.1438 66.0318 61.1234 66.2731 61.0028C66.6415 60.8186 66.937 60.4363 67.0752 59.9652L67.1824 59.5998L67.543 59.5831L67.9036 59.5665L67.8699 59.8839C67.8 60.5427 67.2902 61.262 66.6768 61.5672C66.2214 61.7938 65.4125 61.8843 64.8328 61.7735V61.7735ZM33.5596 61.6901C33.2735 61.5883 32.9514 61.2571 32.8578 60.9685C32.7835 60.7394 32.7112 58.0151 32.7731 57.7752C32.8067 57.6449 32.8279 57.6377 33.1329 57.6532L33.457 57.6697L33.4853 59.1888C33.5169 60.8845 33.5218 60.9055 33.9154 61.0873C34.4027 61.3123 35.1095 61.0783 35.3687 60.6061C35.4897 60.3857 35.499 60.2914 35.5256 59.0207L35.554 57.6697H35.8657H36.1774L36.1923 59.6512C36.2083 61.7813 36.2165 61.7203 35.9128 61.722C35.6539 61.7235 35.5823 61.6693 35.5823 61.4721C35.5823 61.2186 35.4972 61.1906 35.3023 61.3802C35.2113 61.4687 35.0395 61.5875 34.9204 61.6441C34.6316 61.7815 33.8869 61.8066 33.5595 61.6901L33.5596 61.6901ZM38.3311 61.6891C37.5854 61.4586 37.1374 60.8333 37.0253 59.8665C36.9202 58.9596 37.4047 58.0597 38.1894 57.7044C38.4401 57.5909 38.5898 57.5629 38.9545 57.5613C39.2139 57.5602 39.4928 57.5922 39.6063 57.6362C40.1944 57.8637 40.6099 58.3605 40.7642 59.0205C40.8408 59.3484 40.8832 59.8235 40.839 59.8594C40.8311 59.8658 40.1362 59.8844 39.2946 59.9008L37.7643 59.9306L37.7801 60.1237C37.8046 60.4257 38.0227 60.7953 38.2775 60.9671C38.529 61.1366 38.9864 61.2141 39.3469 61.1483C39.596 61.1028 39.9353 60.8246 40.0406 60.5795C40.1146 60.4071 40.1313 60.3994 40.4289 60.3994C40.7139 60.3994 40.7397 60.4097 40.7386 60.5235C40.7352 60.8882 40.2926 61.4316 39.8381 61.6297C39.4907 61.781 38.7262 61.8112 38.3311 61.6891L38.3311 61.6891ZM40.0822 59.1953C40.1477 59.0922 39.9619 58.7036 39.7468 58.4936C39.2346 57.9936 38.4128 58.0498 38.0038 58.6129C37.9173 58.732 37.8311 58.9221 37.8122 59.0354L37.7779 59.2413H38.9154C39.5411 59.2413 40.0661 59.2206 40.0822 59.1953V59.1953ZM50.9726 61.6898C50.3932 61.5102 50.0236 61.1478 49.8062 60.5462C49.4842 59.6546 49.6711 58.6575 50.2693 58.0754C51.0546 57.3113 52.4032 57.3911 53.0444 58.2395C53.2646 58.5308 53.4336 59.0164 53.4748 59.4757C53.4931 59.6804 53.4981 59.8531 53.4857 59.8594C53.4734 59.8658 52.7747 59.8844 51.9331 59.9008L50.4029 59.9306L50.4209 60.1512C50.4611 60.6415 50.8967 61.0841 51.4044 61.1506C52.0064 61.2294 52.4147 61.0525 52.6451 60.613C52.7546 60.4042 52.7641 60.3994 53.0677 60.3994C53.3523 60.3994 53.3782 60.4097 53.377 60.5235C53.3737 60.8882 52.931 61.4316 52.4765 61.6297C52.1302 61.7806 51.3644 61.8112 50.9725 61.6898L50.9726 61.6898ZM52.7065 59.0762C52.6171 58.4639 51.8831 58.0118 51.2686 58.1906C51.1353 58.2294 50.9563 58.3096 50.8707 58.3688C50.6717 58.5065 50.4312 58.9042 50.4312 59.0957V59.2436L51.5789 59.2287L52.7266 59.2138L52.7065 59.0762ZM54.9253 61.6879C54.3882 61.5276 53.9495 61.0304 53.9463 60.5786L53.945 60.3994H54.2507H54.5564L54.6899 60.6604C54.8663 61.0052 55.0914 61.1266 55.6155 61.1593C56.1108 61.1902 56.3834 61.1134 56.5785 60.8878C56.7603 60.6776 56.7603 60.5072 56.5787 60.2972C56.4238 60.1181 56.1897 60.0292 55.406 59.8522C55.1342 59.7907 54.8154 59.7013 54.6976 59.6534C54.0972 59.4094 53.8479 58.8263 54.1087 58.2763C54.3365 57.7961 54.7995 57.5686 55.5602 57.5631C56.1804 57.5586 56.5328 57.651 56.8257 57.895C57.2195 58.223 57.3762 58.7629 57.0973 58.831C56.8129 58.9004 56.6456 58.8378 56.5168 58.6136C56.3269 58.2832 56.0905 58.1658 55.6174 58.167C55.1674 58.1682 54.9256 58.2596 54.8012 58.4755C54.7333 58.5933 54.7308 58.6492 54.7874 58.7821C54.8851 59.0115 55.0707 59.0996 55.8697 59.2959C56.7064 59.5015 56.924 59.5847 57.1399 59.7819C57.4646 60.0785 57.5499 60.5611 57.3514 60.9784C57.2155 61.264 56.9897 61.4664 56.6371 61.6188C56.2606 61.7815 55.3605 61.8178 54.9252 61.6879H54.9253ZM69.2573 61.685C68.5106 61.4281 68.2658 60.4692 68.7966 59.881C69.0283 59.6242 69.4115 59.4799 70.2065 59.3501C70.9688 59.2256 71.0472 59.2046 71.1885 59.0865C71.3431 58.9573 71.3223 58.5532 71.1524 58.3879C70.9705 58.2108 70.5917 58.1187 70.2201 58.1611C69.7699 58.2125 69.5929 58.3237 69.4547 58.6421L69.3361 58.9152L69.0225 58.8991L68.7089 58.8829L68.7229 58.6636C68.7467 58.2894 68.9956 57.9741 69.4422 57.7524C69.8174 57.5661 69.853 57.5594 70.4601 57.5594C71.0344 57.5594 71.1175 57.5728 71.4122 57.7137C71.6298 57.8176 71.7778 57.9346 71.8656 58.0721C71.9912 58.2687 71.9967 58.3274 72.0139 59.6536C72.0251 60.5147 72.0542 61.0572 72.0917 61.1012C72.1247 61.1398 72.2123 61.1714 72.2864 61.1714C72.4082 61.1714 72.4211 61.1951 72.4211 61.4176C72.4211 61.7082 72.331 61.778 71.9557 61.778C71.6654 61.778 71.5001 61.6799 71.4019 61.4493C71.3627 61.3571 71.3145 61.2824 71.2949 61.2832C71.2753 61.2841 71.1583 61.3591 71.0349 61.45C70.6066 61.7652 69.8003 61.8718 69.2573 61.685V61.685ZM70.5566 61.1086C70.8219 61.0222 71.1011 60.811 71.2027 60.6198C71.255 60.5215 71.2876 60.3082 71.2876 60.0653V59.6705L71.1318 59.709C71.0461 59.7301 70.7026 59.7923 70.3686 59.8472C69.9946 59.9086 69.6848 59.9929 69.5621 60.0667C69.1507 60.314 69.174 60.9083 69.602 61.0894C69.8261 61.1842 70.2957 61.1936 70.5566 61.1086V61.1086ZM82.6326 61.685C81.8895 61.4293 81.6437 60.4664 82.1719 59.881C82.4047 59.623 82.7874 59.4798 83.5971 59.3477C84.3913 59.2181 84.5485 59.1601 84.6469 58.9603C84.7272 58.7973 84.6674 58.5161 84.5183 58.3558C84.387 58.2147 83.9188 58.1197 83.5658 58.1626C83.1492 58.2133 82.9397 58.3523 82.8198 58.6576L82.7206 58.9105H82.4148C82.0589 58.9105 82.012 58.853 82.1133 58.5405C82.2432 58.1397 82.425 57.938 82.8317 57.7432C83.1961 57.5686 83.2466 57.5594 83.84 57.5594C84.4093 57.5594 84.4932 57.5731 84.7875 57.7137C85.0051 57.8176 85.1531 57.9346 85.2409 58.0721C85.3666 58.2687 85.3721 58.3274 85.3892 59.6536C85.4004 60.5147 85.4296 61.0572 85.467 61.1012C85.5 61.1398 85.5876 61.1714 85.6617 61.1714C85.7835 61.1714 85.7964 61.1951 85.7964 61.4176C85.7964 61.6992 85.7051 61.778 85.3788 61.778C85.065 61.778 84.8923 61.6875 84.8011 61.4751C84.7555 61.3687 84.7055 61.2817 84.69 61.2817C84.6746 61.2817 84.556 61.3564 84.4265 61.4477C83.9751 61.7659 83.1752 61.8717 82.6326 61.685ZM83.9319 61.1086C84.1972 61.0222 84.4764 60.811 84.578 60.6198C84.6303 60.5214 84.6629 60.3081 84.6629 60.0648C84.6629 59.6816 84.6589 59.6707 84.5354 59.7039C84.4653 59.7228 84.1656 59.7763 83.8695 59.8227C83.5734 59.8692 83.2524 59.9316 83.1562 59.9615C82.9404 60.0287 82.7061 60.2664 82.6573 60.4678C82.6018 60.6974 82.754 60.995 82.9747 61.0883C83.2011 61.184 83.6699 61.194 83.9319 61.1086ZM97.9888 61.6954C97.4078 61.5191 97.1106 60.9772 97.2494 60.3475C97.3767 59.7699 97.7375 59.5547 98.9256 59.3477C99.2872 59.2848 99.6422 59.2113 99.7145 59.1846C99.9225 59.1076 100.035 58.8966 99.9906 58.6665C99.9161 58.2802 99.4522 58.0769 98.8459 58.165C98.4051 58.229 98.2015 58.3998 98.072 58.8139C98.048 58.8905 97.9778 58.9105 97.7317 58.9105C97.5611 58.9105 97.4092 58.891 97.3941 58.8673C97.379 58.8435 97.3914 58.7098 97.4223 58.5702C97.4884 58.2686 97.7864 57.9055 98.0926 57.7535C98.707 57.4486 99.8242 57.484 100.326 57.8243C100.661 58.0517 100.699 58.2435 100.701 59.7128C100.702 61.1102 100.713 61.1714 100.962 61.1714C101.177 61.1714 101.228 61.4871 101.042 61.6677C100.913 61.7931 100.567 61.8164 100.339 61.7152C100.261 61.6807 100.157 61.569 100.107 61.4671C100.057 61.3651 100.005 61.2817 99.9904 61.2817C99.976 61.2817 99.8582 61.3564 99.7287 61.4477C99.2852 61.7603 98.5482 61.8652 97.9888 61.6954L97.9888 61.6954ZM99.2919 61.0863C99.6052 60.9788 99.8933 60.7096 99.9654 60.457C100.033 60.2188 100.039 59.7547 99.975 59.7159C99.933 59.6906 99.7084 59.7247 98.6637 59.9146C98.2389 59.9919 97.9816 60.2364 97.9816 60.5629C97.9816 60.6893 98.0091 60.8427 98.0427 60.9038C98.1822 61.1573 98.8156 61.2499 99.2919 61.0863ZM106.719 61.685C105.969 61.4266 105.725 60.4725 106.259 59.881C106.49 59.6242 106.874 59.4799 107.669 59.3501C108.431 59.2256 108.509 59.2046 108.651 59.0865C108.805 58.9573 108.785 58.5532 108.615 58.3879C108.433 58.2108 108.054 58.1187 107.682 58.1611C107.232 58.2125 107.055 58.3237 106.917 58.6421L106.798 58.9152L106.485 58.8991L106.171 58.8829L106.185 58.6636C106.209 58.2894 106.458 57.9741 106.904 57.7524C107.28 57.5659 107.315 57.5594 107.926 57.5594C108.519 57.5594 108.581 57.5701 108.89 57.7248C109.435 57.9973 109.455 58.0622 109.475 59.6802C109.486 60.534 109.515 61.0552 109.553 61.1002C109.587 61.1394 109.674 61.1714 109.749 61.1714C109.87 61.1714 109.883 61.1951 109.883 61.4176C109.883 61.7082 109.793 61.778 109.418 61.778C109.128 61.778 108.962 61.6799 108.864 61.4493C108.825 61.3571 108.777 61.2824 108.757 61.2832C108.738 61.2841 108.621 61.3591 108.497 61.45C108.069 61.7652 107.263 61.8718 106.719 61.685V61.685ZM108.019 61.1086C108.284 61.0222 108.563 60.811 108.665 60.6198C108.717 60.5215 108.75 60.3082 108.75 60.0653V59.6705L108.594 59.709C108.508 59.7301 108.165 59.7923 107.831 59.8472C107.457 59.9086 107.147 59.9929 107.024 60.0667C106.613 60.314 106.636 60.9083 107.064 61.0894C107.288 61.1842 107.758 61.1936 108.019 61.1086V61.1086ZM116.259 61.704C115.906 61.5904 115.71 61.4739 115.486 61.2449C114.683 60.4234 114.719 58.8179 115.558 58.0548C115.963 57.6855 116.272 57.5686 116.854 57.5635C117.272 57.56 117.379 57.5799 117.658 57.7132C118.011 57.8817 118.261 58.1256 118.45 58.4846C118.714 58.9877 118.823 59.7995 118.635 59.8696C118.586 59.888 117.897 59.9031 117.105 59.9031H115.664V60.0935C115.664 60.4889 115.919 60.8622 116.31 61.0394C116.918 61.3145 117.584 61.1579 117.877 60.6714C118.022 60.4297 118.027 60.4269 118.332 60.4269C118.624 60.4269 118.639 60.4336 118.624 60.561C118.579 60.9616 118.183 61.4235 117.707 61.6306C117.385 61.7711 116.593 61.8113 116.259 61.704V61.704ZM117.987 59.1448C117.984 58.9613 117.778 58.6055 117.572 58.4298C117.014 57.9523 116.14 58.1136 115.811 58.755C115.55 59.2662 115.498 59.2413 116.826 59.2413C117.895 59.2413 117.988 59.2336 117.987 59.1448ZM127.424 61.7009C127.047 61.5848 126.856 61.4648 126.59 61.1764C126.178 60.7313 125.968 59.9091 126.093 59.2362C126.186 58.7397 126.388 58.3599 126.718 58.0586C127.055 57.7526 127.375 57.6033 127.8 57.5547C128.912 57.4275 129.769 58.2 129.874 59.4258C129.899 59.7162 129.889 59.8147 129.827 59.8524C129.784 59.8793 129.093 59.9018 128.292 59.9022C127.491 59.9027 126.822 59.9246 126.805 59.9509C126.749 60.0391 126.923 60.5566 127.072 60.747C127.326 61.0709 127.88 61.2401 128.386 61.1478C128.633 61.1027 128.972 60.8237 129.077 60.5795C129.151 60.4071 129.168 60.3994 129.465 60.3994C129.767 60.3994 129.776 60.4039 129.776 60.551C129.775 60.7781 129.464 61.2613 129.199 61.4485C128.761 61.7568 127.971 61.8692 127.424 61.7009L127.424 61.7009ZM129.119 59.1948C129.188 59.0859 129.015 58.7183 128.793 58.5018C128.367 58.0874 127.718 58.0389 127.249 58.3865C127.054 58.5314 126.829 58.9244 126.829 59.1209C126.829 59.2407 126.835 59.2413 127.959 59.2413C128.581 59.2413 129.103 59.2204 129.119 59.1948V59.1948ZM25.6779 61.6806C25.6218 61.6432 25.6096 61.0442 25.6211 58.8793L25.6359 56.1256H27.2228H28.8097L29.1358 56.2814C30.0155 56.7017 30.1635 57.8416 29.4242 58.502L29.1631 58.7353L29.3912 58.8486C30.5133 59.4056 30.3104 61.15 29.0723 61.5895C28.8572 61.6658 28.5326 61.6868 27.2795 61.7055C26.4378 61.718 25.7171 61.7069 25.6779 61.6806V61.6806ZM28.6237 61.0035C29.0659 60.8841 29.3481 60.5148 29.3481 60.0556C29.3481 59.7279 29.1867 59.461 28.8891 59.2965C28.6466 59.1624 28.609 59.1586 27.5345 59.1586H26.4293L26.4137 60.0387C26.405 60.5228 26.4103 60.9508 26.4261 60.99C26.4613 61.0793 28.3014 61.0906 28.6237 61.0035V61.0035ZM28.6109 58.3803C28.9512 58.2478 29.0928 58.02 29.0929 57.6048C29.093 57.3456 29.0647 57.2269 28.9746 57.1085C28.7512 56.8149 28.623 56.7874 27.4778 56.7874H26.4293L26.4136 57.6283L26.398 58.4693H27.3901C28.1709 58.4693 28.431 58.4503 28.6109 58.3803H28.6109ZM31.1186 61.6771C31.0625 61.6424 31.0504 61.0457 31.0619 58.8793L31.0767 56.1256H31.3884H31.7001L31.7148 58.8793C31.7264 61.0457 31.7143 61.6424 31.6581 61.6771C31.6188 61.7013 31.4975 61.7212 31.3884 61.7212C31.2793 61.7212 31.1579 61.7013 31.1186 61.6771ZM47.3842 61.677C47.3282 61.6424 47.3158 61.1998 47.3275 59.6512L47.3423 57.6697H47.6541H47.9658L47.9828 57.9868C47.9921 58.1612 48.0177 58.3033 48.0395 58.3027C48.0613 58.302 48.1472 58.2078 48.2304 58.0933C48.4036 57.8548 48.8226 57.6155 49.1604 57.5619C49.4592 57.5146 49.5367 57.6006 49.5135 57.9531C49.4969 58.2048 49.4865 58.2198 49.2977 58.2644C48.7684 58.3894 48.6669 58.4273 48.5043 58.5604C48.408 58.6392 48.2731 58.8061 48.2045 58.9312C48.0897 59.1404 48.0775 59.2569 48.0511 60.3877C48.0276 61.399 48.0074 61.6261 47.9375 61.669C47.8338 61.7326 47.4825 61.7377 47.3842 61.677L47.3842 61.677ZM59.1389 61.6672C58.8914 61.6364 58.769 61.5889 58.6572 61.4802L58.5074 61.3345L58.4791 59.8054L58.4508 58.2763L58.1688 58.259C57.803 58.2365 57.7326 58.1748 57.7537 57.895L57.7707 57.6697L58.1107 57.6421L58.4508 57.6145L58.4791 57.0355L58.5074 56.4565H58.8191H59.1308L59.1591 57.0355L59.1875 57.6145L59.5544 57.6313C59.9521 57.6494 60.007 57.6883 60.0084 57.9524C60.0097 58.185 59.9238 58.2395 59.5256 58.2594L59.1875 58.2763L59.1723 59.5601C59.1625 60.3827 59.1783 60.883 59.2168 60.9526C59.2637 61.0378 59.336 61.0611 59.5538 61.0611C59.8756 61.0611 60.0093 61.1583 60.0093 61.392C60.0093 61.7078 59.8559 61.7563 59.139 61.6672L59.1389 61.6672ZM77.932 61.677C77.8761 61.6424 77.8637 61.1998 77.8753 59.6512L77.8903 57.6697H78.202H78.5137L78.5285 59.6512C78.5402 61.1998 78.5279 61.6424 78.4719 61.677C78.4325 61.7013 78.311 61.7212 78.2019 61.7212C78.0928 61.7212 77.9713 61.7013 77.932 61.677L77.932 61.677ZM80.554 61.6716C80.3981 61.652 80.215 61.601 80.1471 61.5583C79.898 61.4017 79.8767 61.2731 79.8462 59.7376L79.8172 58.2763L79.5055 58.2487L79.1937 58.2211V57.9454V57.6697L79.5055 57.6421L79.8172 57.6145L79.8455 57.0355L79.8738 56.4565L80.1979 56.44C80.5799 56.4206 80.5741 56.4103 80.5964 57.1458L80.6106 57.6145L80.9789 57.6421L81.3473 57.6697V57.9454V58.2211L80.9648 58.2374L80.5822 58.2538V59.5913C80.5822 60.558 80.6011 60.9471 80.6502 60.995C80.6876 61.0313 80.8258 61.0611 80.9573 61.0611C81.3347 61.0611 81.3757 61.0935 81.3757 61.392C81.3757 61.7412 81.3027 61.766 80.5539 61.6716L80.554 61.6716ZM86.5468 61.6771C86.4907 61.6424 86.4786 61.0457 86.4901 58.8793L86.5049 56.1256H86.8166H87.1283L87.143 58.8793C87.1546 61.0457 87.1425 61.6424 87.0863 61.6771C87.047 61.7013 86.9257 61.7212 86.8166 61.7212C86.7075 61.7212 86.5861 61.7013 86.5468 61.6771V61.6771ZM90.6202 61.6477C90.574 61.5934 90.5602 60.8142 90.5707 58.849L90.5855 56.1256L91.1045 56.1098L91.6236 56.094L91.8262 56.6061C91.9377 56.8878 92.329 57.8979 92.696 58.8508C93.0629 59.8037 93.3903 60.5922 93.4236 60.603C93.4574 60.614 93.8288 59.7287 94.2661 58.5947C94.6962 57.4794 95.095 56.4603 95.1524 56.3302L95.2568 56.0937L95.7549 56.1097L96.253 56.1256L96.2677 58.8793C96.2793 61.0457 96.2671 61.6424 96.211 61.6771C96.1011 61.745 95.6888 61.7309 95.6125 61.6567C95.562 61.6075 95.5445 61.0391 95.5445 59.4399C95.5445 57.9164 95.5269 57.3063 95.4841 57.348C95.4508 57.3804 95.057 58.357 94.6089 59.5182C94.1609 60.6795 93.7609 61.6502 93.7201 61.6754C93.5865 61.7578 93.2258 61.728 93.1272 61.6264C93.0757 61.5733 92.6732 60.5911 92.2328 59.4436C91.7924 58.2962 91.4073 57.3532 91.3771 57.3481C91.3427 57.3423 91.3167 58.1403 91.3074 59.4866C91.2961 61.1207 91.2758 61.6448 91.2224 61.6778C91.1066 61.7494 90.6892 61.7285 90.6202 61.6477V61.6477ZM101.811 61.6362C101.734 61.5608 101.722 61.3054 101.723 59.6648C101.724 58.6281 101.745 57.7475 101.771 57.7077C101.802 57.6598 101.912 57.6412 102.096 57.6525C102.359 57.6688 102.375 57.6787 102.39 57.8351C102.423 58.1557 102.447 58.1628 102.71 57.927C103.321 57.3793 104.527 57.4324 104.938 58.0249C105.154 58.3367 105.179 58.5538 105.179 60.1316C105.18 61.8011 105.196 61.7229 104.839 61.7229C104.483 61.7229 104.499 61.7926 104.499 60.2143C104.499 58.9507 104.487 58.7492 104.4 58.5835C104.239 58.2764 104.035 58.1659 103.631 58.1669C103.131 58.1681 102.822 58.3427 102.615 58.7411L102.459 59.0405V60.3155C102.459 61.2337 102.44 61.6091 102.391 61.6567C102.293 61.7517 101.916 61.7384 101.811 61.6362V61.6362ZM119.494 61.6362C119.416 61.5608 119.405 61.3054 119.406 59.6648C119.406 58.6281 119.428 57.7475 119.454 57.7077C119.485 57.6598 119.595 57.6412 119.779 57.6525C120.055 57.6696 120.057 57.6707 120.074 57.8765C120.095 58.1217 120.14 58.1316 120.351 57.9377C120.635 57.6778 120.975 57.5609 121.445 57.5621C121.925 57.5632 122.245 57.6956 122.464 57.983L122.586 58.1436L122.792 57.9676C123.136 57.6738 123.456 57.5607 123.939 57.5633C124.712 57.5674 125.138 57.8747 125.244 58.5046C125.274 58.6823 125.298 59.4402 125.299 60.1887C125.299 61.3526 125.286 61.5621 125.21 61.6362C125.105 61.7384 124.728 61.7517 124.63 61.6567C124.581 61.6086 124.562 61.1977 124.562 60.154C124.562 58.8968 124.55 58.6934 124.463 58.5244C124.183 57.9802 123.224 58.0392 122.851 58.6237C122.725 58.8205 122.72 58.8778 122.702 60.2329C122.69 61.2398 122.666 61.6498 122.617 61.6796C122.53 61.7334 122.173 61.7334 122.086 61.6795C122.037 61.6494 122.014 61.2229 122.001 60.1501C121.985 58.7692 121.975 58.6485 121.868 58.4707C121.721 58.2283 121.429 58.1117 121.091 58.161C120.762 58.2091 120.518 58.3625 120.328 58.6422L120.17 58.8745L120.153 60.2275C120.142 61.0842 120.113 61.6066 120.075 61.6517C119.99 61.7513 119.601 61.741 119.494 61.6362L119.494 61.6362ZM130.633 61.6474C130.587 61.5935 130.572 61.015 130.583 59.6208L130.598 57.6697H130.91H131.221L131.239 57.8765C131.249 57.9902 131.284 58.0833 131.317 58.0833C131.351 58.0833 131.475 57.9974 131.595 57.8925C132.154 57.4006 133.358 57.4462 133.744 57.9741C134.004 58.3284 134.027 58.5056 134.027 60.1247C134.027 61.8018 134.044 61.7229 133.687 61.7229C133.331 61.7229 133.347 61.7926 133.347 60.2143C133.347 58.6286 133.327 58.5217 132.988 58.2802C132.636 58.0287 131.814 58.1908 131.547 58.5646C131.333 58.8631 131.307 59.0585 131.307 60.3414C131.307 61.2394 131.287 61.6091 131.238 61.6567C131.146 61.7472 130.712 61.7406 130.633 61.6474V61.6474ZM135.997 61.6679C135.373 61.59 135.365 61.5661 135.33 59.7652L135.302 58.2763L135.02 58.259C134.654 58.2365 134.584 58.1748 134.605 57.895L134.622 57.6697L134.962 57.6421L135.302 57.6146L135.33 57.0355L135.359 56.4565H135.67H135.982L136.011 57.0355L136.039 57.6146L136.406 57.6313C136.803 57.6494 136.858 57.6883 136.86 57.9525C136.861 58.185 136.775 58.2395 136.377 58.2594L136.039 58.2763L136.024 59.5601C136.014 60.3827 136.03 60.883 136.068 60.9526C136.115 61.0379 136.187 61.0611 136.405 61.0611C136.727 61.0611 136.861 61.1583 136.861 61.392C136.861 61.707 136.706 61.7563 135.997 61.6679V61.6679ZM77.8866 56.853C77.8696 56.8101 77.8635 56.6289 77.873 56.4503L77.8903 56.1256H78.202H78.5137V56.5116V56.8977L78.2155 56.9143C77.9987 56.9265 77.909 56.9098 77.8866 56.853L77.8866 56.853Z"></path>
<path fill="white" d="M70.267 50.7992C69.3466 50.7023 68.241 50.268 67.4785 49.7038C66.1803 48.7433 65.3428 47.4023 64.9625 45.675C64.8225 45.0391 64.8196 43.4931 64.9571 42.7639C65.4219 40.2982 66.876 38.4564 68.8869 37.7863C69.434 37.6039 69.4641 37.6002 70.3804 37.602C71.2329 37.6037 71.3606 37.6171 71.8256 37.7542C73.6402 38.2889 74.9552 39.5444 75.5589 41.3185C75.7584 41.9048 75.9127 42.6948 75.8558 42.839C75.8293 42.9062 75.2351 42.9177 71.8001 42.9177H67.7755L67.7394 43.0577C67.679 43.2918 67.7554 47.435 67.8273 47.8257C68.0527 49.0508 68.6219 49.7908 69.5984 50.1286C70.1571 50.3219 71.2821 50.368 71.9497 50.2249C73.596 49.8722 74.952 48.549 75.5142 46.7467C75.5704 46.5667 75.64 46.3884 75.669 46.3505C75.7274 46.2743 76.025 46.256 76.0694 46.326C76.085 46.3504 76.0232 46.5856 75.9324 46.8488C75.4621 48.2104 74.6718 49.3177 73.7105 49.9619C73.1827 50.3156 72.9498 50.428 72.3889 50.6C71.9986 50.7196 70.9973 50.8746 70.7652 50.8513C70.7251 50.8473 70.5009 50.8239 70.2671 50.7992H70.267ZM72.7279 41.2909C72.7233 39.9899 72.6587 39.6041 72.3544 39.0484C72.0373 38.4696 71.5231 38.1346 70.7542 38.0059C69.9599 37.8729 69.1796 38.0521 68.6909 38.4795C68.3717 38.7587 68.0529 39.3078 67.9209 39.8056C67.7671 40.3858 67.6445 42.3329 67.755 42.4404C67.7761 42.4609 68.9046 42.4713 70.2628 42.4634L72.7323 42.449L72.7277 41.2909H72.7279ZM85.9943 50.7784C82.4204 50.2318 79.0035 47.0032 78.0357 43.2585C77.7986 42.341 77.7237 41.6678 77.7245 40.4638C77.7258 38.7481 77.913 37.5789 78.4296 36.0646C79.6712 32.4247 82.5255 29.8611 85.9359 29.3229C86.5946 29.219 87.8577 29.2189 88.4664 29.3227C89.4425 29.4893 90.3236 29.8614 91.8035 30.732C92.7603 31.2949 93.0051 31.3844 93.3295 31.2898C93.6996 31.1819 93.8702 30.9171 93.9827 30.2757C94.0149 30.0917 94.0373 30.0689 94.1853 30.0689C94.3109 30.0689 94.3593 30.0993 94.3826 30.1929C94.3997 30.2612 94.4065 31.6446 94.3979 33.2673L94.3822 36.2176L94.2 36.2347C94.048 36.249 94.0134 36.2307 93.9918 36.1244C93.9775 36.0543 93.9227 35.7612 93.8699 35.4731C93.4417 33.1331 91.9557 31.1177 89.9654 30.1774C88.9646 29.7046 87.9619 29.5267 86.8688 29.6281C86.1066 29.6987 85.7163 29.8049 85.0309 30.1278C83.9461 30.6389 83.2046 31.4278 82.5409 32.7769C81.6217 34.6457 81.202 37.3887 81.2806 41.0152C81.3535 44.3825 81.8103 46.5167 82.7529 47.8945C83.5745 49.0954 84.7497 49.9642 86.007 50.3002C87.937 50.8161 90.4076 49.9135 92.0381 48.097C93.2016 46.8008 93.6762 45.7499 93.8792 44.0206C93.9843 43.1255 94.0147 43.0071 94.1453 42.9826C94.4151 42.9321 94.4106 42.872 94.4106 46.4768C94.4106 48.3359 94.3951 49.8963 94.3762 49.9443C94.3352 50.0482 94.1078 50.0601 94.0282 49.9625C93.9973 49.9246 93.942 49.7695 93.9053 49.6179C93.7518 48.9833 93.3566 48.542 92.9428 48.5431C92.6464 48.5439 92.2901 48.7245 91.2122 49.4206C89.8093 50.3265 89.1822 50.6075 88.1831 50.7777C87.6168 50.8742 86.6228 50.8745 85.9943 50.7784L85.9943 50.7784ZM113.312 50.8049C110.182 50.4661 107.842 47.666 107.843 44.2617C107.843 40.9093 109.728 38.2075 112.461 37.6402C113.066 37.5145 114.182 37.5707 114.842 37.7603C116.503 38.2372 117.751 39.3437 118.431 40.9431C118.644 41.4433 118.827 42.1615 118.849 42.5869L118.866 42.8902L114.845 42.9043C111.715 42.9153 110.814 42.9337 110.779 42.987C110.715 43.0863 110.725 46.7647 110.791 47.3845C111.012 49.4358 111.953 50.3072 113.947 50.3072C114.945 50.3072 115.759 50.0763 116.495 49.5839C117.389 48.9865 118.105 47.9819 118.526 46.7365C118.678 46.2855 118.681 46.2816 118.872 46.2816C119.114 46.2816 119.116 46.3321 118.9 46.9551C117.99 49.5737 115.81 51.0753 113.312 50.8049ZM115.743 41.3185C115.737 40.1033 115.674 39.6834 115.413 39.1403C115.116 38.5204 114.556 38.1332 113.771 38.0045C112.349 37.7715 111.282 38.4471 110.933 39.802C110.771 40.4292 110.655 42.3272 110.771 42.4404C110.792 42.4609 111.921 42.4713 113.279 42.4634L115.749 42.449L115.743 41.3185ZM124.894 50.7999C124.019 50.7085 123.4 50.4928 122.519 49.9724C122.208 49.7885 121.9 49.6455 121.814 49.6455C121.619 49.6455 121.331 49.92 121.331 50.1064C121.331 50.1826 121.306 50.3102 121.275 50.39C121.229 50.5058 121.186 50.5316 121.062 50.5177L120.906 50.5002L120.891 48.332L120.876 46.1639L121.021 46.1814C121.152 46.1973 121.188 46.2645 121.413 46.9208C122.112 48.9569 123.043 49.9592 124.481 50.227C125.952 50.5008 127.235 50.0059 127.808 48.9437C128.204 48.2111 128.29 47.192 128.017 46.4811C127.85 46.0483 127.393 45.5778 126.917 45.3501C126.431 45.1169 125.973 45.0313 124.845 44.9627C124.237 44.9257 123.765 44.8662 123.495 44.7929C122.197 44.4394 121.382 43.6876 121.012 42.5013C120.869 42.044 120.867 40.8301 121.007 40.3259C121.236 39.5068 121.753 38.7128 122.332 38.2909C123.011 37.7956 123.66 37.5966 124.561 37.6066C125.468 37.6166 126.279 37.8192 127.17 38.2587C127.323 38.3341 127.498 38.3958 127.559 38.3958C127.746 38.3958 127.905 38.1391 127.905 37.8369V37.5686H128.133H128.36L128.345 39.3746L128.33 41.1807H128.191C128.065 41.1807 128.039 41.1376 127.923 40.7395C127.479 39.2159 126.536 38.2566 125.265 38.0363C124.689 37.9364 124.345 37.9369 123.854 38.0381C123.014 38.2112 122.432 38.6325 122.083 39.321C121.881 39.7182 121.869 39.77 121.869 40.2679C121.869 40.7434 121.887 40.83 122.046 41.158C122.254 41.5855 122.531 41.8721 122.919 42.0635C123.341 42.2717 123.761 42.3599 124.76 42.4506C125.952 42.5589 126.436 42.6301 126.884 42.7631C128.773 43.3236 129.728 44.8623 129.501 46.9802C129.372 48.178 128.978 49.0535 128.25 49.7582C127.399 50.5816 126.243 50.9406 124.894 50.7999L124.894 50.7999ZM135.528 50.769C134.914 50.6513 134.747 50.6077 134.451 50.4882C133.983 50.2989 133.453 49.92 133.216 49.6048C133.106 49.4598 132.957 49.1801 132.884 48.9832L132.751 48.6253L132.723 43.4968L132.695 38.3682L131.618 38.3407L130.541 38.3131L130.524 38.1416C130.508 37.9817 130.521 37.9677 130.722 37.9354C130.841 37.9163 131.029 37.9004 131.141 37.9001C131.452 37.8992 132.2 37.6981 132.599 37.508C132.796 37.4143 133.12 37.1896 133.318 37.0085C134.074 36.3205 134.413 35.6055 134.794 33.8877C134.816 33.7928 134.862 33.7636 134.991 33.7636H135.16V35.793C135.16 37.2978 135.178 37.8394 135.228 37.8885C135.278 37.937 135.753 37.9547 137.013 37.9547H138.73V38.1469V38.3391L136.959 38.3537L135.188 38.3682L135.173 43.4692C135.163 46.8572 135.178 48.6985 135.218 48.9525C135.289 49.4109 135.509 49.8287 135.757 49.9778C136.036 50.1452 136.473 50.2063 136.91 50.1389C137.708 50.0158 138.279 49.6055 138.67 48.8742C138.904 48.4356 138.908 48.4323 139.129 48.4323H139.352L139.236 48.7218C138.814 49.7764 137.963 50.501 136.889 50.7206C136.523 50.7951 135.799 50.8209 135.528 50.769H135.528ZM23.2266 50.213L23.2266 50.0039H24.4026H25.5787V40.0226V30.0413H24.4026H23.2266L23.2266 29.8315L23.2267 29.6217L28.2566 29.6426C33.7044 29.6651 33.6867 29.6642 35.0549 29.985C37.8267 30.635 39.3205 32.2299 39.322 34.5406C39.3233 37.0941 37.432 38.8096 34.0661 39.3073C33.7901 39.3481 33.703 39.4282 33.8934 39.4663C33.9648 39.4806 34.3549 39.5545 34.7603 39.6305C37.4004 40.126 39.1087 41.3206 39.7212 43.0998C40.2389 44.604 40.0006 46.3363 39.0947 47.6521C38.1754 48.9875 36.7296 49.8446 34.692 50.2622C34.0836 50.3868 34.0472 50.3877 28.6533 50.4049L23.2267 50.4222L23.2266 50.213ZM32.0579 49.8927C34.6791 49.4999 36.0665 48.2582 36.4632 45.95C36.5977 45.1674 36.5547 43.7342 36.3782 43.1113C35.714 40.7684 33.5206 39.5644 29.8613 39.5341C29.345 39.5298 28.8906 39.5464 28.8517 39.5709C28.7958 39.6061 28.7808 40.7044 28.7808 44.7573C28.7808 48.7953 28.796 49.9147 28.8517 49.9716C28.9482 50.0705 31.2497 50.0138 32.0579 49.8927ZM31.1222 39.1678C34.1153 38.9792 35.5938 38.107 36.1236 36.2176C36.2463 35.7802 36.294 34.5699 36.2096 34.0393C35.9504 32.4115 34.8669 31.1182 33.2543 30.5122C32.4248 30.2004 31.8398 30.115 30.3246 30.0842C29.281 30.0631 28.9293 30.0728 28.8652 30.1245C28.7918 30.1838 28.7808 30.766 28.7808 34.6184C28.7808 38.1731 28.7953 39.0557 28.8542 39.1033C28.9196 39.1561 29.147 39.177 30.0277 39.2109C30.1679 39.2163 30.6605 39.1969 31.1222 39.1678V39.1678ZM41.6843 50.3812C41.6633 50.3607 41.646 50.2743 41.646 50.1891V50.0343L42.5387 50.0191L43.4313 50.0039V40.0226V30.0413L42.5352 30.0261L41.6391 30.0109L41.6567 29.8331L41.6744 29.6553L42.9213 29.6229C44.3876 29.5849 44.9186 29.4861 45.6941 29.1074L46.1801 28.8701V39.4173C46.1801 48.9841 46.1885 49.9677 46.2697 49.998C46.3191 50.0164 46.716 50.0315 47.1518 50.0315H47.9442L47.9265 50.2107L47.9087 50.3899L44.8157 50.4042C43.1145 50.412 41.7054 50.4017 41.6844 50.3812L41.6843 50.3812ZM53.4768 50.3117C52.0428 50.0069 51.0341 49.0995 50.6212 47.743C50.529 47.4402 50.5189 47.0323 50.502 42.9487C50.4893 39.8918 50.4644 38.463 50.423 38.4144C50.3797 38.3636 50.1184 38.3392 49.504 38.3283L48.6454 38.3131V38.1477V37.9822L50.0296 37.9438C51.327 37.9078 52.4608 37.798 52.7888 37.6767C52.8674 37.6476 52.9803 37.6238 53.0396 37.6238C53.1447 37.6238 53.1478 37.7582 53.1635 42.9867L53.1797 48.3496L53.3111 48.7272C53.5532 49.4232 54.0678 49.7926 54.8734 49.8486C56.2895 49.9471 57.6788 49.0571 58.9465 47.2394L59.2727 46.7716L59.2582 42.5699L59.2437 38.3682L58.3369 38.3407L57.4301 38.3131L57.4123 38.1339L57.3946 37.9547L58.2341 37.9535C59.3818 37.952 60.6434 37.8667 61.1788 37.7544C61.4237 37.7031 61.6878 37.6589 61.7658 37.6562L61.9074 37.6514L61.9358 43.8277L61.9641 50.004L62.8129 50.0193C63.2798 50.0277 63.6848 50.0569 63.7128 50.0842C63.7408 50.1114 63.7472 50.1976 63.7271 50.2756L63.6905 50.4175H61.4873C59.5306 50.4175 59.2803 50.4078 59.2497 50.3303C59.2308 50.2823 59.2153 49.6868 59.2153 49.0068C59.2153 48.3269 59.1929 47.7706 59.1655 47.7706C59.1381 47.7706 58.9718 47.9566 58.796 48.1839C57.9686 49.2535 56.9946 49.9545 55.918 50.2551C55.3065 50.4259 54.1412 50.4529 53.4768 50.3117L53.4768 50.3117ZM96.7342 50.225V50.0315L97.5702 50.0306C98.03 50.0302 98.4381 50.01 98.4772 49.9859C98.5337 49.951 98.5454 48.7481 98.5339 44.1551L98.5195 38.3682L97.6268 38.3531L96.7342 38.3379V38.155V37.9722L98.1369 37.9378C99.566 37.9027 100.186 37.8468 100.779 37.6997C100.962 37.6544 101.147 37.6303 101.19 37.6463C101.254 37.67 101.268 37.9474 101.268 39.1385C101.268 39.9432 101.29 40.6016 101.317 40.6016C101.345 40.6016 101.436 40.4467 101.52 40.2573C101.916 39.3699 102.57 38.5046 103.151 38.1014C103.666 37.7441 104.035 37.6157 104.64 37.5828C106.051 37.5062 106.964 38.2489 106.852 39.3819C106.811 39.797 106.728 40.01 106.507 40.2648C106.026 40.8203 105.047 40.7758 104.488 40.173C104.05 39.7002 104.055 39.1063 104.501 38.4749C104.729 38.153 104.695 38.0649 104.345 38.065C103.791 38.0651 103.041 38.5894 102.53 39.3333C102.082 39.9865 101.494 41.4284 101.328 42.2836C101.283 42.5154 101.268 43.7197 101.28 46.3092L101.297 50.0039L102.147 50.0315L102.997 50.059V50.2245V50.3899L99.8655 50.4042L96.7342 50.4184L96.7342 50.225Z"></path>
<path fill="white" d="M86.4478 50.7686C84.2273 50.5346 82.1186 49.3798 80.4338 47.4751C78.9246 45.7689 78.1177 44.0077 77.8565 41.8494C77.7583 41.038 77.8197 38.9828 77.967 38.1475C78.7063 33.9569 81.2246 30.7938 84.7023 29.6881C85.4362 29.4547 86.0512 29.3499 86.9012 29.3135C88.5808 29.2416 89.6873 29.5763 91.7325 30.775C92.1924 31.0445 92.6554 31.2936 92.7613 31.3286C93.3947 31.5376 93.8844 31.2023 94.0257 30.4631C94.077 30.1946 94.1121 30.1238 94.1939 30.1238C94.2927 30.1238 94.2973 30.2585 94.2973 33.1568C94.2973 36.0733 94.2932 36.1898 94.1922 36.1898C94.1029 36.1898 94.0684 36.0924 93.9624 35.5419C93.3951 32.5951 91.4624 30.3723 88.8835 29.7009C88.3882 29.5719 88.209 29.5535 87.4396 29.5519C86.7202 29.5505 86.4708 29.5721 86.0623 29.6712C85.102 29.9042 84.3409 30.3307 83.6666 31.0138C81.9792 32.7229 81.1933 35.693 81.1954 40.3533C81.1967 43.7973 81.6465 46.2451 82.549 47.7228C83.4139 49.1388 84.8514 50.1705 86.3477 50.4491C87.5009 50.6638 88.886 50.3922 90.0899 49.7155C90.8006 49.316 91.2117 49.0075 91.8032 48.4297C93.1344 47.1293 93.7353 45.8888 93.9803 43.9355C94.0299 43.54 94.0706 43.1864 94.0706 43.1497C94.0706 43.113 94.1216 43.083 94.1839 43.083C94.296 43.083 94.2973 43.1198 94.2973 46.5058V49.9287L94.1759 49.9111C94.0813 49.8973 94.0373 49.8278 93.9765 49.5954C93.7892 48.8807 93.4216 48.4868 92.9429 48.4878C92.5844 48.4885 92.2667 48.6445 91.1698 49.3578C89.8658 50.206 89.274 50.4842 88.3809 50.6691C87.9778 50.7526 86.8474 50.8107 86.4478 50.7686ZM69.757 50.6414C67.3844 50.1537 65.5591 48.2227 65.0473 45.6591C64.9132 44.9872 64.9012 43.6193 65.023 42.8883C65.6704 39.0047 68.7829 36.8177 72.0932 37.9205C72.8997 38.1892 73.4797 38.5466 74.1195 39.1691C75.0812 40.1048 75.5057 40.9851 75.7876 42.628L75.8183 42.8073H71.8845C69.3818 42.8073 67.8961 42.8275 67.8006 42.8628L67.6506 42.9183L67.6747 45.303C67.6972 47.531 67.7069 47.7181 67.8222 48.1509C68.1468 49.3687 68.7518 50.0003 69.8703 50.2888C70.4167 50.4298 71.5702 50.4161 72.1535 50.2618C73.7156 49.8486 74.8886 48.6758 75.5556 46.8604C75.7079 46.4459 75.7597 46.3611 75.8701 46.3458C75.992 46.3289 75.9992 46.3417 75.9636 46.5113C75.8876 46.8721 75.428 47.8961 75.1312 48.3655C74.7476 48.9723 73.9503 49.7649 73.4125 50.0742C72.3342 50.6943 71.0121 50.8994 69.7569 50.6414H69.757ZM72.7278 42.5532C72.8054 42.5242 72.8174 42.372 72.8174 41.4204C72.8174 40.1864 72.7433 39.684 72.481 39.1401C72.1696 38.4945 71.6495 38.1021 70.9062 37.9519C70.4432 37.8584 69.6306 37.9107 69.2355 38.0594C68.5628 38.3125 68.0652 38.9596 67.8271 39.8908C67.678 40.4736 67.5974 42.3642 67.7157 42.5028C67.7777 42.5755 68.1112 42.5867 70.2127 42.5867C71.5467 42.5867 72.6785 42.5716 72.7278 42.5532ZM112.953 50.6864C112.426 50.6012 111.586 50.2982 111.119 50.0249C109.507 49.0825 108.474 47.6254 108.063 45.7153C107.92 45.0532 107.893 43.7254 108.007 43.0003C108.552 39.5305 111.085 37.2973 114.049 37.6746C116.516 37.9886 118.413 39.9119 118.77 42.4626L118.819 42.8073H114.893C112.396 42.8073 110.913 42.8275 110.817 42.8628L110.667 42.9183L110.69 45.3305C110.712 47.5998 110.72 47.7689 110.837 48.1839C111.172 49.3795 111.78 50.0035 112.887 50.2889C113.429 50.4288 114.587 50.4161 115.161 50.264C115.951 50.0549 116.803 49.5522 117.314 48.9939C117.856 48.4018 118.408 47.4227 118.643 46.6359C118.719 46.3796 118.752 46.3366 118.87 46.3366C118.946 46.3366 119.008 46.3567 119.008 46.3814C119.008 46.406 118.933 46.6416 118.841 46.9048C118.127 48.9606 116.72 50.284 114.842 50.6656C114.41 50.7535 113.434 50.7642 112.953 50.6864H112.953ZM115.766 42.5205C115.854 42.4344 115.859 40.6403 115.772 40.0952C115.6 39.0159 115.142 38.3759 114.312 38.055C114.04 37.9498 113.885 37.9311 113.284 37.9311C112.38 37.9311 112.051 38.0411 111.58 38.5011C110.95 39.1164 110.735 39.8079 110.691 41.3593C110.669 42.163 110.679 42.4405 110.733 42.5035C110.794 42.5753 111.139 42.5867 113.251 42.5867C115.079 42.5867 115.715 42.5699 115.766 42.5205H115.766ZM124.335 50.6413C123.73 50.5169 123.197 50.2974 122.538 49.9005C122.156 49.6708 121.968 49.5901 121.814 49.5901C121.524 49.5901 121.298 49.8169 121.245 50.1602C121.21 50.3841 121.188 50.4173 121.069 50.4173H120.933L120.948 48.3356C120.96 46.6909 120.978 46.2539 121.035 46.2539C121.078 46.2539 121.212 46.5573 121.36 46.9877C122.143 49.2626 123.256 50.2778 125.047 50.35C126.389 50.4041 127.358 49.937 127.87 48.9888C128.159 48.4548 128.261 47.9755 128.232 47.3016C128.198 46.5459 128.056 46.1968 127.599 45.7536C126.997 45.1699 126.405 44.978 124.966 44.9012C123.587 44.8277 122.92 44.6348 122.185 44.0968C121.656 43.7104 121.266 43.1218 121.072 42.4173C120.928 41.8995 120.94 40.8739 121.096 40.3099C121.385 39.2621 122.057 38.4227 122.933 38.0159C123.506 37.7496 123.844 37.6787 124.539 37.6787C125.374 37.6787 126.049 37.8362 126.948 38.2403C127.248 38.3749 127.497 38.4526 127.595 38.4414C127.806 38.4171 127.966 38.1945 127.989 37.8948C128.005 37.679 128.024 37.6492 128.155 37.6337L128.302 37.6163V39.357C128.302 40.9932 128.296 41.0978 128.201 41.0978C128.123 41.0978 128.076 41.0103 127.999 40.7255C127.944 40.5208 127.77 40.0927 127.611 39.7743C126.988 38.5221 125.971 37.9033 124.531 37.9003C123.376 37.8979 122.47 38.3915 122.026 39.2656C121.82 39.6714 121.813 39.7059 121.813 40.2689C121.813 40.8138 121.825 40.8754 121.995 41.2117C122.226 41.6687 122.515 41.953 122.952 42.1542C123.402 42.3616 123.863 42.4496 125.069 42.5587C126.189 42.6599 126.65 42.7428 127.187 42.9392C128.304 43.3486 129.113 44.2648 129.357 45.3991C129.497 46.0509 129.44 47.3158 129.242 47.9613C129.01 48.7124 128.741 49.1643 128.218 49.6788C127.458 50.4274 126.596 50.7524 125.394 50.7443C125.071 50.7421 124.605 50.6968 124.335 50.6413H124.335ZM135.565 50.6908C134.375 50.5693 133.307 49.8909 132.965 49.0387C132.872 48.8091 132.864 48.4064 132.851 43.662C132.844 40.8413 132.824 38.4782 132.808 38.4106C132.778 38.2894 132.763 38.2875 131.688 38.2727C130.643 38.2584 130.598 38.2532 130.598 38.1482C130.598 38.0507 130.66 38.031 131.159 37.9705C131.468 37.9331 131.917 37.8389 132.157 37.7611C133.56 37.3067 134.413 36.1438 134.821 34.1325C134.872 33.8818 134.907 33.8161 134.98 33.8299C135.066 33.8459 135.078 34.0423 135.103 35.9148L135.132 37.982L136.907 37.9966L138.681 38.0112L138.663 38.1345L138.645 38.2578L136.889 38.2853L135.132 38.3129V43.7447V49.1766L135.28 49.4848C135.362 49.6544 135.502 49.8598 135.592 49.9412C136.021 50.3306 136.972 50.3426 137.726 49.9683C138.074 49.7958 138.562 49.281 138.755 48.8845C138.888 48.6101 138.947 48.5424 139.053 48.5424C139.212 48.5424 139.215 48.6083 139.068 48.9227C138.78 49.5419 138.222 50.1141 137.622 50.4069C137.116 50.6539 136.303 50.7661 135.565 50.6908L135.565 50.6908ZM23.2266 50.2243L23.2266 50.0589L24.3929 50.0759C25.2287 50.088 25.5821 50.0744 25.6398 50.0277C25.7613 49.9297 25.7613 30.1152 25.6398 30.0171C25.5821 29.9705 25.2287 29.9568 24.3929 29.969L23.2266 29.986L23.2266 29.8205L23.2266 29.6551L23.8926 29.6684C24.2589 29.6757 26.4714 29.6917 28.8092 29.704C33.1584 29.7269 33.4635 29.7406 34.6184 29.965C37.6172 30.5477 39.2629 32.1695 39.2653 34.5444C39.268 37.0121 37.3118 38.7865 34.1083 39.2226C33.8746 39.2544 33.6386 39.2939 33.5841 39.3105C33.4185 39.3607 33.4711 39.4914 33.6691 39.5217C33.7704 39.5372 34.0446 39.5775 34.2784 39.6113C37.353 40.0557 39.3492 41.5145 39.7994 43.6459C39.9167 44.2012 39.9167 45.2737 39.7994 45.8288C39.3694 47.8626 37.695 49.4386 35.3269 50.0382C34.2073 50.3216 34.2431 50.3197 29.6027 50.3419C27.2025 50.3534 24.786 50.3689 24.2327 50.3763L23.2266 50.3898V50.2243ZM32.1814 49.9527C33.6882 49.7003 34.8494 49.1272 35.5419 48.2942C35.8956 47.8688 36.277 47.0978 36.4285 46.502C36.7089 45.3994 36.7091 44.012 36.429 43.03C35.7573 40.675 33.4248 39.4434 29.6363 39.4434C29.1083 39.4434 28.8385 39.4646 28.7922 39.5096C28.6911 39.608 28.6939 49.9235 28.7949 50.0255C28.8982 50.1297 31.4526 50.0747 32.1812 49.9527H32.1814ZM31.5296 39.2219C33.4524 39.0495 34.8074 38.5014 35.5139 37.6104C36.0769 36.9003 36.3329 36.0527 36.3346 34.8939C36.3366 33.4288 35.8678 32.3054 34.8804 31.4099C34.1982 30.7912 33.3354 30.3814 32.2066 30.1398C31.8418 30.0617 31.4712 30.0432 30.2544 30.0423L28.7525 30.0412V34.6177V39.1942L28.9226 39.2296C29.1994 39.2872 30.8566 39.2824 31.5296 39.222V39.2219ZM41.7245 50.2826C41.6568 50.1109 41.7661 50.0865 42.6016 50.0865C43.1758 50.0865 43.4583 50.0658 43.5051 50.0203C43.61 49.9182 43.6033 30.1066 43.4983 30.0218C43.4536 29.9857 43.0834 29.9553 42.5773 29.9461C41.7741 29.9316 41.7311 29.9252 41.7311 29.8205C41.7311 29.7144 41.7802 29.709 43.0346 29.6773C44.4894 29.6406 44.8858 29.5708 45.6559 29.2158L46.0668 29.0264V39.415C46.0668 45.9561 46.087 49.8554 46.1214 49.9435L46.1761 50.0835L47.0141 50.0988C47.809 50.1132 47.852 50.1197 47.852 50.2243C47.852 50.3331 47.8094 50.3348 44.8041 50.3489C42.1742 50.3612 41.7519 50.3521 41.7245 50.2826H41.7245ZM54.0296 50.3287C53.4588 50.2469 52.9496 50.1047 52.5277 49.9092C51.6406 49.498 50.9526 48.662 50.677 47.6601C50.5884 47.3382 50.5751 46.8427 50.547 42.8073L50.5158 38.3129L49.6232 38.2977L48.7305 38.2825V38.1461V38.0096L49.8215 38.0096C51.2755 38.0095 52.2981 37.9101 52.9953 37.7011C53.0893 37.6729 53.0945 37.9446 53.0945 42.8761C53.0945 46.3135 53.1149 48.1886 53.1547 48.3978C53.3445 49.3969 53.892 49.8607 54.939 49.9094C56.415 49.9779 57.7647 49.0926 59.0562 47.2086L59.3294 46.81L59.3149 42.5615L59.3004 38.3129L58.3936 38.2853C57.534 38.2592 57.4868 38.252 57.4868 38.1475C57.4868 38.041 57.5361 38.036 58.932 38.0035C60.308 37.9713 61.2317 37.879 61.6218 37.7347C61.705 37.7039 61.7842 37.6788 61.7978 37.6788C61.8114 37.6788 61.8224 40.4407 61.8224 43.8164C61.8224 48.5166 61.8383 49.9696 61.8904 50.0203C61.9372 50.0658 62.2204 50.0865 62.7972 50.0865H63.636V50.2243V50.3622H61.4834H59.3307L59.3155 49.0256C59.2979 47.4734 59.2842 47.4408 58.8737 47.9747C57.9343 49.1968 56.9397 49.9239 55.8296 50.2001C55.4158 50.3031 54.3714 50.3777 54.0296 50.3287H54.0296ZM96.8287 50.3254C96.808 50.3052 96.791 50.2432 96.791 50.1876C96.791 50.0939 96.8555 50.0865 97.6709 50.0865H98.5507L98.606 49.945C98.6951 49.7169 98.68 38.4963 98.5904 38.3795C98.5306 38.3015 98.3871 38.2848 97.6694 38.2725C96.8362 38.2581 96.819 38.2553 96.8012 38.1337L96.7831 38.0096H97.9146C99.3376 38.0096 100.578 37.8894 101.056 37.7052C101.149 37.6693 101.155 37.7588 101.155 39.1297C101.155 39.9342 101.17 40.6317 101.189 40.6797C101.252 40.8372 101.381 40.7711 101.478 40.5325C101.637 40.1394 101.999 39.497 102.304 39.069C103.029 38.0482 104.031 37.5392 105.106 37.6463C106.16 37.7513 106.766 38.3174 106.766 39.1962C106.766 39.7121 106.643 40.051 106.368 40.2927C105.877 40.7243 105.155 40.6841 104.622 40.1955C104.126 39.7415 104.11 39.1401 104.578 38.5063C104.69 38.3543 104.782 38.1945 104.782 38.1511C104.782 37.9537 104.163 37.9491 103.727 38.1433C102.73 38.5874 101.827 40.056 101.295 42.0961L101.155 42.6342V46.2942C101.155 49.0673 101.171 49.9701 101.223 50.0203C101.27 50.0656 101.547 50.0865 102.101 50.0865H102.912V50.2243V50.3622H99.8893C98.2268 50.3622 96.8496 50.3456 96.8288 50.3254H96.8287ZM139.241 48.5424C139.241 48.4817 139.264 48.4321 139.292 48.4321C139.32 48.4321 139.33 48.4817 139.314 48.5424C139.297 48.603 139.274 48.6527 139.262 48.6527C139.25 48.6527 139.241 48.603 139.241 48.5424Z"></path>
</g>
<defs>
<clipPath id="clip0_3829_21313">
<rect transform="translate(23.0918 28.8701)" fill="white" height="34.4363" width="116.395"></rect>
</clipPath>
</defs>
</svg>
