<svg xmlns="http://www.w3.org/2000/svg" fill="none" viewBox="0 0 161 91" height="91" width="161">
<g clip-path="url(#clip0_3829_20668)">
<path fill="#F7F5F4" d="M9.58789 48.6602L17.1516 44.9321L9.58789 41.2041V48.6602Z"></path>
<path fill-opacity="0.08" fill="white" d="M9.58789 48.6597V56.1157L24.7153 48.6597L17.1516 44.9316L9.58789 48.6597Z"></path>
<path fill-opacity="0.64" fill="white" d="M9.58789 56.1152H32.2789V52.3872L24.7153 48.6592L9.58789 56.1152Z"></path>
<path fill-opacity="0.24" fill="white" d="M9.58789 33.7471V41.2031L17.1516 44.9311L24.7153 41.2031L9.58789 33.7471Z"></path>
<path fill-opacity="0.64" fill="white" d="M9.58789 33.7471L24.7153 41.2031L32.2789 37.4751V33.7471H9.58789Z"></path>
<path fill-opacity="0.32" fill="white" d="M24.716 41.2036L17.1523 44.9316L24.716 48.6597L32.2797 52.3877V44.9316V37.4756L24.716 41.2036Z"></path>
<path fill="white" d="M140.771 47.2615C140.141 47.2615 139.471 47.3003 138.841 47.378C137.659 47.5722 137.029 48.1547 137.029 49.1644C137.029 50.0575 137.619 50.5235 138.486 50.5235C139.707 50.5235 140.771 49.708 140.771 48.1547V47.2615ZM137.659 52.5817C135.492 52.5817 134.113 51.2614 134.113 49.2032C134.113 47.3392 135.335 46.213 137.304 45.747C138.447 45.5528 139.589 45.4363 140.732 45.4752C140.732 43.883 140.062 43.3393 138.407 43.3393C137.344 43.3781 136.28 43.6111 135.295 44.0771V41.8636C136.398 41.3976 137.58 41.2035 138.801 41.2035C142.307 41.2035 143.607 42.7568 143.607 45.747V50.1352H144.986V52.3487H141.047L140.81 51.2225H140.771C139.983 52.1157 138.841 52.6205 137.659 52.5817ZM102.283 47.2615C101.653 47.2615 100.983 47.3003 100.353 47.378C99.1707 47.5722 98.5404 48.1547 98.5404 49.1644C98.5404 50.0575 99.1313 50.5235 99.998 50.5235C101.219 50.5235 102.283 49.708 102.283 48.1547V47.2615ZM99.1707 52.5817C97.004 52.5817 95.6252 51.2614 95.6252 49.2032C95.6252 47.3392 96.8465 46.213 98.8162 45.747C99.9586 45.5528 101.101 45.4363 102.243 45.4752C102.243 43.883 101.574 43.3393 99.9192 43.3393C98.8556 43.3781 97.7919 43.6111 96.8071 44.0771V41.8636C97.9101 41.3976 99.0919 41.2035 100.274 41.2035C103.78 41.2035 105.08 42.7568 105.08 45.747V50.1352H106.459V52.3487H102.519L102.322 51.2225H102.283C101.534 52.1157 100.392 52.6205 99.1707 52.5817ZM58.7523 47.2615C58.122 47.2615 57.4523 47.3003 56.822 47.378C55.6402 47.5722 55.0098 48.1547 55.0098 49.1644C55.0098 50.0575 55.6008 50.5235 56.4674 50.5235C57.6887 50.5235 58.7523 49.708 58.7523 48.1547V47.2615ZM55.6402 52.5817C53.4735 52.5817 52.0947 51.2614 52.0947 49.2032C52.0947 47.3392 53.3159 46.213 55.325 45.747C56.4674 45.5528 57.6099 45.4363 58.7523 45.4752C58.7523 43.883 58.0826 43.3393 56.428 43.3393C55.3644 43.3781 54.3008 43.6111 53.3553 44.0771V41.8636C54.4583 41.3976 55.6402 41.2035 56.822 41.2035C60.3281 41.2035 61.6281 42.7568 61.6281 45.747V50.1352H63.0069V52.3487H59.0674L58.8311 51.2225H58.7917C58.0038 52.1157 56.8614 52.6205 55.6402 52.5817ZM116.189 46.8732C116.189 44.8538 115.165 43.4946 113.589 43.4946C112.013 43.4946 111.028 44.8538 111.028 46.8732C111.028 48.8925 112.013 50.2905 113.55 50.2905C115.125 50.2517 116.189 48.8925 116.189 46.8732ZM119.144 46.8732C119.144 50.2517 117.174 52.6205 114.337 52.6205C112.644 52.6205 111.619 51.9604 111.147 51.2614H111.107V55.8437L108.231 57.0087V43.6111H106.774V41.3976H110.871L111.068 42.8345H111.107C111.462 42.252 112.328 41.2035 114.337 41.2035C117.292 41.2035 119.144 43.417 119.144 46.8732ZM77.3463 41.2035C75.9676 41.1258 74.6281 41.7471 73.7615 42.8345H73.7221L73.5251 41.3976H69.2705V43.6111H70.8463V52.3487H73.7221V47.3003C73.7221 44.582 75.1797 43.6111 76.4403 43.6111C77.6221 43.6111 78.1736 44.349 78.1736 46.0188V52.3487H81.0494V45.3587C81.0494 42.6015 79.7494 41.2035 77.3463 41.2035ZM90.4252 49.9799C87.4706 49.9799 85.7373 48.0382 85.7373 44.8927C85.7373 41.8248 87.4706 39.7666 90.1495 39.7666C90.8192 39.7666 91.4495 39.8443 92.0798 39.9996V43.1063L94.6404 42.0578V38.4074C93.3404 37.6696 91.8434 37.2813 90.307 37.3201C85.7767 37.3201 82.704 40.0773 82.704 44.9703C82.704 49.6304 85.4615 52.6205 90.307 52.6205C91.8434 52.6205 93.3798 52.2322 94.7192 51.5332L94.0889 49.1644C92.9858 49.708 91.7252 49.9799 90.4252 49.9799ZM149.398 50.1352V36.6211L146.523 37.7861V52.3487H150.816V50.1352H149.398ZM48.1947 47.9217C48.1947 46.5237 47.131 45.747 45.3583 45.747H42.6007V50.1352H45.3977C47.3674 50.0964 48.1947 49.2032 48.1947 47.9217ZM42.6007 43.5335H44.9249C46.5795 43.5335 47.3674 42.7568 47.3674 41.6695C47.3674 40.388 46.5795 39.7666 45.0825 39.7666H42.6007V43.5335ZM51.2674 48.077C51.2674 50.9119 48.9825 52.3487 45.5946 52.3487H39.6855V39.7278H37.834V37.5143H45.0825C47.0128 37.5143 48.0371 37.7861 48.7856 38.2521C49.8098 38.8734 50.4007 39.9996 50.3613 41.1646C50.3613 42.718 49.3765 43.9218 47.8007 44.3101V44.349C49.928 44.7762 51.228 46.1742 51.2674 48.077ZM119.931 43.6111H121.507V52.3487H124.383V41.3976H119.931V43.6111ZM121.507 39.4948H124.383V36.8153H121.507V39.4948ZM63.2432 43.6111H64.819V52.3487H67.6948V41.3976H63.2432V43.6111ZM64.819 39.4948H67.6948V36.8153H64.819V39.4948ZM130.41 41.3976H133.325V43.6111H130.41V48.4265C130.41 49.6304 130.686 50.3294 131.868 50.3294C132.301 50.2905 132.735 50.2517 133.168 50.1352V52.271C132.419 52.4652 131.671 52.5429 130.922 52.5817C128.677 52.5817 127.535 51.4944 127.535 49.1644V43.6111H125.959V41.3976H127.535V39.5336L130.41 38.3686V41.3976Z"></path>
</g>
<defs>
<clipPath id="clip0_3829_20668">
<rect transform="translate(9.58789 33.7471)" fill="white" height="23.4167" width="141.189"></rect>
</clipPath>
</defs>
</svg>
