<svg xmlns="http://www.w3.org/2000/svg" fill="none" viewBox="0 0 161 91" height="91" width="161">
<path fill="white" d="M48.3525 32.0018C47.6492 32.1682 46.912 32.3401 46.7141 32.3839C46.0995 32.5201 46.2582 33.0392 46.9538 33.1682C47.9267 33.3488 47.9529 33.4107 47.9529 35.5319V37.4566L46.6342 37.4593C45.4926 37.4619 45.1727 37.529 44.2523 37.9595C42.9501 38.5686 41.9827 39.501 41.423 40.6865C41.063 41.4489 40.9999 41.7963 41.0008 43.0111C41.0018 44.2008 41.0648 44.5588 41.3777 45.1536C42.2046 46.7254 43.4618 47.5942 44.9158 47.5992C45.6412 47.6015 45.9838 47.4965 46.8739 46.999L47.9529 46.3959V47.0613C47.9529 47.6023 48 47.7088 48.2053 47.6306C48.7286 47.4313 50.9768 46.8993 51.2963 46.8993C51.5399 46.8993 51.6292 46.7985 51.6292 46.5235C51.6292 46.2018 51.5322 46.1347 50.9555 46.0579C50.5831 46.0084 50.1899 45.8435 50.0764 45.6892C49.9165 45.4723 49.871 43.8853 49.871 38.5372C49.871 34.757 49.8171 31.672 49.7511 31.6817C49.6851 31.6913 49.0558 31.8354 48.3525 32.0018ZM90.98 33.3701C91.0219 33.7322 91.1237 33.82 91.5773 33.8859C91.878 33.9295 92.1512 34.0468 92.1843 34.1463C92.2174 34.2459 91.8913 34.7459 91.4595 35.2572C90.4356 36.4701 87.1892 39.5991 86.9548 39.5991C86.8241 39.5991 86.787 38.8846 86.8236 37.0651C86.8808 34.2183 86.9353 34.0747 88.0226 33.9001C88.4953 33.8243 88.6444 33.7222 88.684 33.4474L88.735 33.0924H85.8356H82.9362L82.9872 33.4474C83.0269 33.7222 83.176 33.8243 83.6487 33.9001C84.8264 34.0891 84.7911 33.9159 84.8446 39.7562C84.8972 45.4721 84.8232 46.1718 84.1389 46.4302C83.9177 46.5137 83.5617 46.5819 83.3477 46.5819C83.039 46.5819 82.9585 46.6641 82.9585 46.9786V47.3754H85.9156H88.8726V46.9993C88.8726 46.67 88.781 46.613 88.1369 46.5408C86.9117 46.4037 86.8816 46.3264 86.8244 43.1646C86.7937 41.4773 86.8337 40.3926 86.9266 40.3926C87.2263 40.3926 87.7905 40.9915 90.4402 44.122L93.1269 47.2961L94.9158 47.341L96.7049 47.3859V47.0037C96.7049 46.7016 96.599 46.6005 96.1989 46.5211C95.9204 46.4657 95.451 46.2375 95.1554 46.0137C94.6006 45.5935 92.1582 42.9146 90.1752 40.5513L89.0435 39.2023L90.996 37.2484C93.4577 34.7851 94.2621 34.1863 95.4149 33.9589C96.2078 33.8025 96.3109 33.7368 96.3558 33.3585L96.4065 32.9337H93.6679H90.9293L90.98 33.3701ZM0.159843 33.4891C0.159843 33.8428 0.225858 33.8859 0.768684 33.8859C1.10355 33.8859 1.51707 33.9871 1.68778 34.1111C1.98349 34.3255 2.00011 34.6054 2.04375 40.0637L2.08947 45.7914L1.69146 46.1866C1.39831 46.4776 1.12258 46.5819 0.646564 46.5819C0.0569038 46.5819 0 46.6181 0 46.9945V47.4071L4.03603 47.3399C7.82463 47.2768 8.14655 47.2483 9.28655 46.8725C12.735 45.7359 14.5502 43.2357 14.5438 39.631C14.5393 37.1214 13.4364 35.0775 11.5472 34.0777C9.92416 33.2188 9.03496 33.0973 4.35572 33.0947L0.159843 33.0924V33.4891ZM36.9237 33.5685C36.7258 33.7649 36.604 34.0974 36.604 34.4413C36.604 35.1601 37.069 35.6316 37.7781 35.6316C38.4705 35.6316 38.9058 35.1612 38.9058 34.4129C38.9058 33.3928 37.6427 32.8546 36.9237 33.5685ZM8.72295 34.3799C11.8026 35.5238 13.0836 39.249 11.6748 42.9638C10.9165 44.9633 9.1339 46.2277 6.85454 46.3827C5.39518 46.4821 4.73215 46.2758 4.38817 45.6153C4.07088 45.006 4.04083 34.4946 4.35572 34.2379C4.91021 33.7857 7.33599 33.8646 8.72295 34.3799ZM124.518 37.5399C124.034 37.7029 123.333 37.9143 122.959 38.0097C122.094 38.2304 122.005 38.7219 122.799 38.8906C123.085 38.9513 123.409 39.0728 123.519 39.1607C123.672 39.2834 123.718 40.712 123.718 45.3228V51.325L123.363 51.5719C123.168 51.7078 122.808 51.819 122.564 51.819C122.197 51.819 122.12 51.8877 122.12 52.2158V52.6125H124.837H127.555V52.2158C127.555 51.8671 127.486 51.819 126.988 51.819C126.599 51.819 126.298 51.6965 126.029 51.4294C125.657 51.0607 125.637 50.9416 125.637 49.2046V47.3694L126.076 47.4914C127.369 47.8504 129.333 47.1697 130.72 45.8819C133.977 42.8569 132.782 37.4844 128.848 37.4617C128.074 37.4573 127.804 37.5471 126.835 38.13L125.716 38.8033L125.668 38.011C125.641 37.5752 125.57 37.2243 125.508 37.2311C125.447 37.2379 125.001 37.3769 124.518 37.5399ZM19.1012 37.6742C17.3864 38.3177 15.9843 39.3229 15.9843 39.9089C15.9843 40.4265 16.5664 40.8949 17.1398 40.8384C17.5786 40.795 17.6676 40.6984 17.8966 40.0157C18.1582 39.2369 18.8351 38.4882 19.2778 38.4882C20.1461 38.4882 21.0878 39.6895 21.0957 40.8073C21.0989 41.2588 21.0168 41.3381 20.1436 41.7272C19.618 41.9615 18.8025 42.2848 18.3314 42.4457C16.4301 43.0951 15.9843 43.5707 15.9843 44.9498C15.9843 46.2939 16.8772 47.3883 18.1701 47.6292C18.7735 47.7415 19.614 47.4395 20.4957 46.7938C21.1263 46.3318 21.1664 46.3331 21.3905 46.8212C21.4909 47.0401 21.82 47.336 22.1218 47.4789C22.6566 47.7322 22.6902 47.7274 23.4434 47.2943C24.7296 46.5548 24.7459 46.5386 24.6 46.1472C24.4839 45.8357 24.4141 45.812 24.0335 45.9557C23.6721 46.0921 23.5442 46.0647 23.2685 45.7911C22.9614 45.4864 22.9317 45.2301 22.8575 42.2532C22.7818 39.2123 22.7581 39.0163 22.4053 38.5255C21.6805 37.5164 20.4004 37.1867 19.1012 37.6742ZM37.4032 37.7839C36.7439 37.9859 36.0427 38.1557 35.8448 38.1611C35.5703 38.1685 35.4851 38.2647 35.4851 38.5675C35.4851 38.8746 35.5674 38.9643 35.8491 38.9643C36.0494 38.9643 36.373 39.0755 36.5684 39.2114C36.9157 39.4528 36.9237 39.5312 36.9237 42.6674C36.9237 46.2551 36.8559 46.5222 35.9226 46.6117C35.5265 46.6497 35.3932 46.745 35.354 47.0183L35.3031 47.3754H37.8828H40.4625L40.4115 47.0183C40.3723 46.745 40.239 46.6497 39.8429 46.6117C38.8752 46.5189 38.8418 46.3527 38.8418 41.6268C38.8418 39.2896 38.788 37.386 38.7219 37.3968C38.6559 37.4074 38.0626 37.5817 37.4032 37.7839ZM55.1458 37.5637C53.9256 37.908 52.915 39.1536 52.915 40.3132C52.915 40.9529 53.4173 42.0137 53.8977 42.3889C54.1126 42.5565 54.8822 43.011 55.6081 43.3988C57.449 44.3823 57.8767 45.3232 56.9164 46.2767C55.9552 47.2308 54.5518 46.6657 53.7595 45.0054C53.301 44.0449 53.1668 43.9351 52.7617 44.1898C52.5731 44.3082 52.5647 44.5385 52.7109 45.5737C52.9177 47.0366 53.1206 47.2649 54.4588 47.5408C57.7111 48.2111 60.2023 45.782 58.8861 43.2235C58.5886 42.6453 58.0437 42.2481 56.6411 41.5871C55.9848 41.2778 55.2719 40.8365 55.0571 40.6062C54.5322 40.0439 54.5328 39.241 55.0587 38.7191C55.8694 37.914 57.1664 38.4018 57.8734 39.7778C58.0795 40.179 58.2992 40.3926 58.5057 40.3926C58.8773 40.3926 58.9072 39.8555 58.607 38.5726C58.4363 37.8435 58.3743 37.7697 57.7832 37.5929C57.0104 37.3617 55.905 37.3495 55.1458 37.5637ZM63.9889 37.5958C61.8888 38.279 60.6463 39.912 60.4663 42.2256C60.2956 44.4206 61.2841 46.2826 63.0841 47.1569C63.8468 47.5274 64.2166 47.6057 65.2111 47.6071C67.2558 47.61 68.7815 46.6379 69.6191 44.7984C69.9987 43.9646 70.0727 43.5875 70.0786 42.4557C70.0844 41.3276 70.0177 40.9622 69.671 40.2232C69.1889 39.196 68.3363 38.316 67.3752 37.8542C66.5018 37.4342 64.8684 37.3097 63.9889 37.5958ZM73.6876 37.5336C73.5557 37.6167 72.9262 37.8073 72.2889 37.9568C71.2771 38.1943 71.1301 38.2739 71.1301 38.5839C71.1301 38.851 71.2514 38.9655 71.6192 39.0457C71.9454 39.1168 72.1614 39.291 72.2677 39.5688C72.4932 40.1574 72.3847 46.0355 72.144 46.274C72.0421 46.3748 71.7185 46.5059 71.4247 46.5651C71.0374 46.6433 70.8763 46.7696 70.8392 47.0242C70.7885 47.3733 70.8021 47.3754 73.1968 47.3754H75.6057V46.9786C75.6057 46.67 75.5237 46.5819 75.2366 46.5819C75.0336 46.5819 74.7443 46.4924 74.5937 46.383C74.3484 46.205 74.3244 45.8549 74.3634 43.0168L74.4069 39.8495L74.9474 39.4878C76.1549 38.6804 77.3905 38.7446 78.0679 39.6499C78.3732 40.0577 78.4076 40.3491 78.4557 42.9297C78.5139 46.061 78.4509 46.3405 77.64 46.5479C77.2842 46.639 77.1084 46.7879 77.073 47.0277C77.0225 47.3719 77.0454 47.3754 79.3508 47.3754H81.6797V46.9786C81.6797 46.6738 81.5964 46.5813 81.3201 46.5795C80.5026 46.574 80.4868 46.5105 80.3963 42.8983C80.3185 39.7863 80.2833 39.4659 79.9504 38.8391C79.5426 38.0711 78.8777 37.6033 77.9803 37.4528C77.117 37.3079 76.5598 37.4684 75.4482 38.1817C74.9136 38.5248 74.4425 38.8056 74.4014 38.8056C74.3605 38.8056 74.3269 38.4842 74.3269 38.0914C74.3269 37.3608 74.1733 37.2268 73.6876 37.5336ZM100.203 37.5964C97.9245 38.4047 96.6461 40.3235 96.6482 42.9318C96.6496 44.5942 97.0603 45.6467 98.0665 46.5676C98.7605 47.2027 99.9896 47.6928 100.888 47.6928C101.587 47.6928 102.887 47.1386 103.657 46.5119C104.425 45.8868 104.663 45.4156 104.38 45.0773C104.227 44.8948 104.074 44.9428 103.475 45.3626C102.836 45.8095 102.629 45.8677 101.675 45.8677C100.732 45.8677 100.52 45.8101 99.9899 45.4086C99.3233 44.9038 98.7027 43.7326 98.5302 42.6541C98.434 42.0523 98.4563 41.9796 98.7377 41.9796C99.8948 41.9796 104.189 41.6035 104.417 41.4821C105.049 41.1467 104.606 39.3439 103.661 38.4056C102.704 37.4547 101.437 37.1584 100.203 37.5964ZM107.334 37.7818C106.719 37.987 106.054 38.1584 105.856 38.1628C105.581 38.1689 105.496 38.2642 105.496 38.5675C105.496 38.8762 105.578 38.9643 105.865 38.9643C106.068 38.9643 106.374 39.0657 106.545 39.1896C106.835 39.4004 106.855 39.6319 106.855 42.7526C106.855 45.1357 106.8 46.1445 106.663 46.2804C106.558 46.385 106.198 46.5144 105.864 46.5681C105.394 46.6435 105.245 46.7458 105.205 47.0204C105.155 47.3744 105.161 47.3754 107.563 47.3754H109.972V46.9786C109.972 46.6666 109.891 46.5819 109.592 46.5819C108.857 46.5819 108.777 46.2674 108.718 43.1354C108.667 40.4716 108.688 40.1847 108.958 39.8893C109.687 39.0884 111.228 38.6864 111.999 39.0958C112.707 39.4723 112.849 40.1587 112.849 43.2089C112.849 45.7662 112.819 46.0834 112.557 46.3192C112.396 46.4637 112.072 46.5819 111.837 46.5819C111.489 46.5819 111.41 46.6544 111.41 46.9786V47.3754H113.808H116.206V46.9786C116.206 46.6443 116.131 46.5819 115.73 46.5819C114.846 46.5819 114.754 46.2129 114.803 42.8418L114.847 39.8503L115.612 39.3809C116.542 38.8103 117.607 38.7408 118.144 39.2155C118.81 39.8049 118.923 40.384 118.923 43.2087C118.923 46.2066 118.829 46.5248 117.922 46.6117C117.526 46.6497 117.393 46.745 117.353 47.0183L117.302 47.3754H119.802C122.291 47.3754 122.302 47.3738 122.251 47.0242C122.214 46.7688 122.052 46.6433 121.66 46.564C121.363 46.504 121.058 46.3584 120.983 46.2407C120.908 46.1228 120.843 44.741 120.84 43.1698C120.836 41.5987 120.759 39.9933 120.668 39.6022C120.442 38.628 119.865 37.9338 119.012 37.6104C117.964 37.2129 117.13 37.3911 115.717 38.3144L114.546 39.0798L114.217 38.6002C113.152 37.0481 111.524 37.0065 109.481 38.4793L108.773 38.9893L108.725 38.1833C108.698 37.7401 108.626 37.3844 108.565 37.3931C108.504 37.4019 107.95 37.5768 107.334 37.7818ZM136.026 37.5336C135.894 37.6167 135.265 37.8073 134.628 37.9568C133.601 38.1977 133.469 38.2709 133.469 38.5966C133.469 38.8584 133.561 38.9643 133.788 38.9643C133.964 38.9643 134.252 39.1071 134.428 39.2817C134.726 39.578 134.748 39.8106 134.748 42.7731C134.748 45.7355 134.726 45.9682 134.428 46.2645C134.25 46.4408 133.895 46.5819 133.629 46.5819C133.224 46.5819 133.149 46.6436 133.149 46.9786V47.3754H135.638C138.115 47.3754 138.126 47.3738 138.075 47.0242C138.038 46.7688 137.877 46.6433 137.484 46.564C137.187 46.504 136.882 46.3584 136.805 46.2407C136.729 46.1228 136.685 44.6365 136.706 42.938L136.746 39.8495L137.289 39.4859C138.204 38.8741 138.982 38.7399 139.672 39.0747C140.681 39.5643 140.821 40.0633 140.821 43.1741C140.822 46.1464 140.722 46.5173 139.901 46.6113C139.588 46.647 139.448 46.7631 139.412 47.0183C139.361 47.3751 139.363 47.3754 141.781 47.3754C144.187 47.3754 144.2 47.3735 144.15 47.0242C144.113 46.7708 143.952 46.6433 143.571 46.5665C143.281 46.5079 142.993 46.4103 142.931 46.3496C142.87 46.2888 142.784 44.6915 142.74 42.8001C142.651 38.9703 142.561 38.6248 141.474 37.8975C140.324 37.1276 139.231 37.2278 137.707 38.2428L136.666 38.936V38.1566C136.666 37.3597 136.523 37.2202 136.026 37.5336ZM147.996 37.5964C145.718 38.4047 144.439 40.3235 144.441 42.9318C144.443 44.5942 144.853 45.6467 145.86 46.5676C146.554 47.2027 147.783 47.6928 148.681 47.6928C149.38 47.6928 150.68 47.1386 151.45 46.5119C152.218 45.8868 152.456 45.4156 152.173 45.0773C152.02 44.8948 151.868 44.9428 151.268 45.3626C150.629 45.8095 150.422 45.8677 149.468 45.8677C148.525 45.8677 148.313 45.8101 147.783 45.4086C147.116 44.9038 146.496 43.7326 146.323 42.6541C146.227 42.0523 146.249 41.9796 146.531 41.9796C147.688 41.9796 151.982 41.6035 152.21 41.4821C152.842 41.1467 152.399 39.3439 151.454 38.4056C150.497 37.4547 149.23 37.1584 147.996 37.5964ZM155.128 37.7818C154.512 37.987 153.847 38.1584 153.649 38.1628C153.374 38.1689 153.289 38.2642 153.289 38.5675C153.289 38.8762 153.371 38.9643 153.658 38.9643C153.861 38.9643 154.167 39.0657 154.338 39.1895C154.628 39.4002 154.648 39.6318 154.648 42.7523C154.648 45.0684 154.591 46.1461 154.463 46.2735C154.361 46.3746 154.038 46.5059 153.744 46.5651C153.356 46.6433 153.195 46.7696 153.158 47.0242C153.107 47.3746 153.113 47.3754 155.767 47.3754H158.427L158.376 47.0183C158.334 46.73 158.194 46.6439 157.648 46.5716C157.276 46.5224 156.923 46.4337 156.864 46.3748C156.661 46.1731 156.505 44.7576 156.496 43.0216C156.488 41.5736 156.541 41.1729 156.82 40.6021C157.377 39.4594 158.39 38.9284 158.884 39.5197C159.186 39.8814 159.943 39.8171 160.233 39.405C160.57 38.9286 160.549 38.1209 160.192 37.8005C159.751 37.4041 158.997 37.3106 158.466 37.5863C157.983 37.8377 157.199 38.6101 156.75 39.2774C156.493 39.66 156.486 39.6416 156.486 38.5236C156.486 37.893 156.432 37.3844 156.366 37.3931C156.3 37.4019 155.743 37.5768 155.128 37.7818ZM24.165 38.0411C24.1983 38.2657 24.3743 38.4291 24.666 38.5061C24.9134 38.5715 25.2168 38.7081 25.3402 38.8099C25.5259 38.9628 28.4821 46.1571 28.8436 47.3357C28.9165 47.5736 29.0783 47.6928 29.328 47.6928C29.647 47.6928 29.7674 47.5212 30.1358 46.5422C30.9155 44.4698 32.9481 39.6899 33.2732 39.1641C33.4716 38.8435 33.7825 38.6008 34.0986 38.5199C34.4465 38.4309 34.622 38.2807 34.6571 38.0424C34.7073 37.7002 34.6758 37.6947 32.6879 37.6947C30.6999 37.6947 30.6684 37.7002 30.7186 38.0424C30.7539 38.2828 30.9301 38.431 31.2892 38.5229C31.7149 38.632 31.8089 38.734 31.8095 39.0879C31.8105 39.5578 30.053 44.5188 29.8857 44.5188C29.7874 44.5188 27.6432 39.0066 27.6498 38.7705C27.6514 38.7075 27.8865 38.5961 28.1723 38.5229C28.5315 38.431 28.7076 38.2828 28.7429 38.0424C28.7935 37.6982 28.7709 37.6947 26.454 37.6947C24.1398 37.6947 24.1145 37.6985 24.165 38.0411ZM46.7246 38.5594C47.9658 38.9989 47.9529 38.9584 47.9529 42.4087V45.4865L47.2735 45.7927C46.0207 46.3573 44.8418 46.0901 43.9739 45.0446C42.7959 43.6256 42.8524 40.6011 44.0827 39.2253C44.3866 38.8857 45.5022 38.3345 45.8749 38.3399C46.0068 38.3418 46.3891 38.4406 46.7246 38.5594ZM66.5167 38.9021C67.1701 39.5183 67.5434 40.2783 67.7807 41.4762C68.1895 43.5393 67.6634 45.7901 66.6254 46.4184C64.6825 47.5944 62.6666 45.4339 62.6603 42.1689C62.6574 40.6284 62.9279 39.8152 63.715 38.9998C64.3853 38.305 64.4221 38.2896 65.2161 38.3653C65.8292 38.4239 66.1502 38.5563 66.5167 38.9021ZM101.777 38.7384C102.253 39.0444 102.65 39.8384 102.589 40.3634L102.539 40.7893L100.569 40.8339L98.5983 40.8787L98.7108 40.5165C99.2768 38.6958 100.555 37.9541 101.777 38.7384ZM149.57 38.7384C150.046 39.0444 150.443 39.8384 150.382 40.3634L150.332 40.7893L148.362 40.8339L146.391 40.8787L146.504 40.5165C147.07 38.6958 148.348 37.9541 149.57 38.7384ZM129.195 39.3664C129.995 39.906 130.462 40.8615 130.555 42.1502C130.786 45.3463 128.465 47.3476 126.152 45.9468L125.629 45.6302L125.673 42.6669L125.716 39.7037L126.421 39.334C127.387 38.8268 128.413 38.8389 129.195 39.3664ZM21.0993 43.8657C21.0993 45.3859 21.0862 45.4431 20.6776 45.7089C20.1229 46.0696 19.1572 46.1891 18.711 45.9522C18.2665 45.7159 17.8532 44.7686 17.9942 44.3088C18.1743 43.7212 18.5793 43.3804 19.7406 42.8391C20.356 42.5523 20.9135 42.313 20.9794 42.3073C21.0452 42.3016 21.0993 43.0029 21.0993 43.8657ZM24.7875 50.6886C24.3532 50.8092 24.1398 51.1842 24.5055 51.1842C24.8802 51.1842 24.9355 51.5432 24.9355 53.9731C24.9355 56.0881 24.9115 56.2748 24.6158 56.4581C24.0779 56.7916 24.2512 56.8974 25.3351 56.8974C26.3472 56.8974 26.6986 56.7037 26.0544 56.5007C25.7499 56.4047 25.7347 56.2606 25.7347 53.4747C25.7347 50.271 25.7828 50.4125 24.7875 50.6886ZM3.63291 51.0774C2.81915 51.3288 1.93378 52.0606 1.66189 52.7066C1.39687 53.3364 1.37001 54.634 1.60914 55.2604C2.13822 56.647 3.73009 57.2931 5.78599 56.9557C6.31603 56.8685 6.40267 56.7838 6.62565 56.1339C6.96691 55.1398 6.65873 54.9599 6.04829 55.7967C4.64152 57.7247 1.95344 55.7472 2.56132 53.2314C2.77168 52.361 3.50008 51.6002 4.28731 51.4285C4.97287 51.279 5.8787 51.6987 6.12486 52.2799C6.26248 52.6051 6.39004 52.7128 6.53294 52.6252C6.68847 52.5297 6.70589 52.3221 6.60231 51.8019C6.48323 51.2039 6.39723 51.0922 5.98915 51.0054C5.23997 50.8459 4.2881 50.8751 3.63291 51.0774ZM28.9316 51.2636C28.9316 51.3945 29.0359 51.5016 29.1633 51.5016C29.5823 51.5016 29.6596 51.9457 29.5425 53.6788C29.385 56.0076 29.3051 56.3704 28.9276 56.4683C28.754 56.5134 28.6119 56.6284 28.6119 56.7238C28.6119 56.833 29.0276 56.8974 29.7308 56.8974C30.842 56.8974 31.2237 56.6792 30.4501 56.4866L30.0505 56.3869L30.0636 54.3808C30.0783 52.0966 29.9351 52.0006 31.2841 55.1982C31.6817 56.1404 32.0832 56.886 32.1764 56.8551C32.2696 56.8243 32.7122 55.982 33.1597 54.9835C33.6074 53.985 34.0571 52.9894 34.1592 52.7712C34.312 52.4441 34.3466 52.7166 34.3554 54.3219C34.3661 56.2498 34.3622 56.2712 33.9666 56.4502C33.2697 56.7654 33.5291 56.8974 34.8457 56.8974C36.148 56.8974 36.4216 56.7654 35.7495 56.4613C35.3897 56.2985 35.3707 56.2033 35.2824 54.1151C35.2319 52.918 35.2286 51.8403 35.2751 51.7201C35.3214 51.6 35.4957 51.5016 35.6621 51.5016C35.8289 51.5016 35.9646 51.3912 35.9646 51.2553C35.9646 51.0585 35.8005 51.0185 35.1491 51.0569L34.3336 51.1049L33.4588 53.0093C32.9775 54.0567 32.5298 54.9692 32.4638 55.037C32.3978 55.1047 31.924 54.23 31.411 53.0929L30.4785 51.0255H29.705C29.124 51.0255 28.9316 51.0847 28.9316 51.2636ZM77.0443 51.2636C77.0443 51.3945 77.1805 51.5016 77.3468 51.5016C77.7859 51.5016 77.8435 51.7865 77.8435 53.9615C77.8435 56.1365 77.7859 56.4213 77.3468 56.4213C77.1805 56.4213 77.0443 56.5285 77.0443 56.6594C77.0443 56.8587 77.3803 56.8974 79.1096 56.8974H81.1748L81.2793 56.3817C81.3368 56.0981 81.4193 55.741 81.4626 55.5882C81.5141 55.4069 81.4527 55.3104 81.2859 55.3104C81.1454 55.3104 80.9857 55.4353 80.9312 55.5882C80.7176 56.1857 80.3589 56.4213 79.6625 56.4213C79.1451 56.4213 78.9325 56.345 78.8081 56.1144C78.6325 55.7883 78.5757 52.1769 78.7397 51.7527C78.7931 51.6146 78.9729 51.5016 79.1393 51.5016C79.3057 51.5016 79.4419 51.3945 79.4419 51.2636C79.4419 51.0731 79.2021 51.0255 78.2431 51.0255C77.284 51.0255 77.0443 51.0731 77.0443 51.2636ZM81.8396 51.2496C81.8396 51.3958 81.9737 51.5016 82.1592 51.5016C82.4652 51.5016 82.4789 51.6075 82.4789 53.9615C82.4789 56.3155 82.4652 56.4213 82.1592 56.4213C81.9817 56.4213 81.8396 56.5272 81.8396 56.6594C81.8396 56.8514 82.0897 56.8974 83.1316 56.8974C84.0786 56.8974 84.4063 56.8457 84.3585 56.7035C84.3227 56.5967 84.1189 56.4688 83.9057 56.4193C83.5609 56.339 83.5126 56.2318 83.4709 55.4534L83.4239 54.578L84.1902 54.5775C85.0062 54.5772 85.7242 54.2268 86.0153 53.6866C86.1069 53.5166 86.182 53.0523 86.182 52.6547C86.182 52.0879 86.0922 51.8428 85.7658 51.5184C85.3762 51.1314 85.2373 51.1014 83.5946 51.0512C82.075 51.0046 81.8396 51.0312 81.8396 51.2496ZM16.0976 51.2832C16.0353 51.3451 15.9843 51.5624 15.9843 51.7662C15.9843 52.0736 16.0676 52.1364 16.4744 52.1364C16.9149 52.1364 16.9595 52.0921 16.9139 51.7C16.8644 51.2721 16.3654 51.0174 16.0976 51.2832ZM84.8264 51.8466C85.615 52.5824 85.0564 54.0408 83.9858 54.0408H83.438V52.8771C83.438 52.2369 83.4859 51.6656 83.5446 51.6075C83.7687 51.3848 84.4718 51.5162 84.8264 51.8466ZM18.4866 51.9506C18.3412 52.1102 18.2221 52.3875 18.2221 52.5668C18.2221 52.7595 18.0912 52.9269 17.9024 52.9759C17.7266 53.0215 17.5827 53.137 17.5827 53.2324C17.5827 53.3279 17.7266 53.406 17.9024 53.406C18.1991 53.406 18.2221 53.5119 18.2221 54.8783C18.2221 56.9466 18.6262 57.4313 19.8336 56.8113C20.3195 56.5619 20.3274 56.2264 19.8463 56.2733C19.2006 56.3363 19.1811 56.2941 19.1811 54.8343V53.406H19.6607C19.9804 53.406 20.1402 53.3267 20.1402 53.168C20.1402 53.0093 19.9804 52.9299 19.6607 52.9299C19.2078 52.9299 19.1811 52.8947 19.1811 52.2951C19.1811 51.5905 18.9289 51.4653 18.4866 51.9506ZM72.9931 51.9506C72.8476 52.1102 72.7285 52.3875 72.7285 52.5668C72.7285 52.7595 72.5976 52.9269 72.4088 52.9759C72.233 53.0215 72.0891 53.137 72.0891 53.2324C72.0891 53.3279 72.233 53.406 72.4088 53.406C72.7055 53.406 72.7285 53.5119 72.7285 54.8783C72.7285 56.9466 73.1326 57.4313 74.34 56.8113C74.826 56.5619 74.8344 56.2122 74.3527 56.2907C73.8006 56.3809 73.6876 56.1184 73.6876 54.7456V53.406H74.1671C74.4868 53.406 74.6466 53.3267 74.6466 53.168C74.6466 53.0093 74.4868 52.9299 74.1671 52.9299C73.7143 52.9299 73.6876 52.8947 73.6876 52.2951C73.6876 51.5905 73.4353 51.4653 72.9931 51.9506ZM8.13712 53.1411C7.60293 53.4216 7.43269 53.6031 7.43269 53.8928C7.43269 54.4733 7.92421 54.4728 8.22679 53.892C8.5444 53.2821 9.05734 53.2449 9.276 53.8161C9.47676 54.3404 9.39844 54.4522 8.66924 54.6817C7.63186 55.0083 7.35277 55.26 7.35277 55.8695C7.35277 56.8401 8.28753 57.3775 9.03352 56.8359C9.29279 56.6478 9.38741 56.6486 9.68392 56.8414C9.96285 57.0228 10.1129 57.0299 10.45 56.8774C10.9481 56.6522 10.9962 56.3326 10.5496 56.2166C10.263 56.1422 10.2299 56.0001 10.2299 54.8419C10.2299 53.6822 10.1898 53.5106 9.83753 53.1608C9.34921 52.676 9.03016 52.6722 8.13712 53.1411ZM11.3888 52.9691C10.8065 53.1545 10.7037 53.4847 11.189 53.6107C11.4895 53.6887 11.5087 53.8272 11.5087 55.9175C11.5087 58.2659 11.451 58.6431 11.092 58.6431C10.9695 58.6431 10.8693 58.7503 10.8693 58.8812C10.8693 59.07 11.1001 59.1192 11.9882 59.1192C12.852 59.1192 13.1071 59.0675 13.1071 58.8923C13.1071 58.7674 12.9454 58.6423 12.7475 58.6146C12.4406 58.5712 12.3806 58.4532 12.3391 57.81C12.2919 57.0788 12.3039 57.0561 12.7387 57.0536C13.9947 57.0461 15.3432 55.4826 15.1186 54.2938C14.8938 53.1045 13.8966 52.5152 12.9241 52.9969C12.306 53.303 12.3079 53.303 12.3079 53.0093C12.3079 52.74 12.1324 52.7323 11.3888 52.9691ZM16.1042 52.978C15.4541 53.1586 15.3129 53.4779 15.8244 53.6107C16.1109 53.685 16.1441 53.8272 16.1441 54.9768C16.1441 56.0881 16.1013 56.2864 15.8244 56.4581C15.2866 56.7916 15.4598 56.8974 16.5437 56.8974C17.5559 56.8974 17.9072 56.7037 17.263 56.5007C16.968 56.4077 16.9433 56.2606 16.9433 54.5856C16.9433 53.5877 16.8893 52.7803 16.8235 52.7912C16.7576 52.8023 16.4339 52.8863 16.1042 52.978ZM21.4129 53.1283C20.7169 53.4766 20.4397 53.9256 20.7379 54.2216C20.9504 54.4327 21.3736 54.23 21.468 53.872C21.6453 53.1988 22.4394 53.3721 22.5652 54.1114C22.6066 54.3541 22.4471 54.4834 21.8186 54.7163C20.7952 55.0954 20.567 55.3282 20.5855 55.9741C20.6111 56.869 21.5729 57.351 22.2768 56.8216C22.5356 56.627 22.6261 56.63 22.9562 56.8449C23.3027 57.0703 23.3732 57.0691 23.7367 56.8327C24.218 56.5196 24.2539 56.2626 23.8166 56.2626C23.5218 56.2626 23.4969 56.1568 23.4969 54.9065C23.4969 53.6782 23.46 53.5136 23.1045 53.1608C22.6195 52.6792 22.3213 52.6735 21.4129 53.1283ZM37.2034 53.1784C36.6862 53.4457 36.4442 53.671 36.4442 53.8851C36.4442 54.0581 36.4742 54.1995 36.511 54.1995C36.5478 54.1995 36.6868 54.2409 36.82 54.2917C36.9808 54.353 37.1473 54.22 37.3166 53.895C37.6134 53.3251 38.1073 53.2503 38.369 53.7358C38.6321 54.224 38.4788 54.4306 37.6187 54.7469C37.1926 54.9035 36.754 55.1438 36.644 55.2808C36.3331 55.6681 36.406 56.3737 36.7941 56.7325C37.2124 57.1196 37.6831 57.1455 38.1682 56.8081C38.4916 56.5832 38.5482 56.5832 38.7747 56.8081C39.0891 57.1202 39.236 57.119 39.7266 56.7998C39.9686 56.6424 40.1206 56.6118 40.1206 56.7205C40.1206 56.8325 40.5019 56.8974 41.1595 56.8974C42.1368 56.8974 42.4979 56.7281 41.9588 56.5226C41.7738 56.4523 41.719 56.1468 41.719 55.1884C41.719 53.821 41.8509 53.5647 42.5542 53.5647C43.1215 53.5647 43.3174 54.0151 43.3174 55.3195C43.3174 56.0881 43.2591 56.2961 42.9977 56.4581C42.4552 56.7944 42.6357 56.8976 43.757 56.8922C44.8339 56.887 44.8353 56.8863 44.4763 56.5889C44.1542 56.3223 44.1166 56.1477 44.1166 54.9207C44.1166 53.6772 44.0804 53.5143 43.7242 53.1608C43.2719 52.7115 42.8563 52.6716 42.1905 53.0134C41.7614 53.2337 41.719 53.2322 41.719 52.9964C41.719 52.8145 41.6357 52.7693 41.4393 52.8447C41.2855 52.9037 40.9617 52.9918 40.72 53.0402C40.2636 53.1316 40.0987 53.5647 40.5202 53.5647C40.7153 53.5647 40.7599 53.8274 40.7599 54.976C40.7599 56.561 40.6385 56.733 39.809 56.3223C39.3253 56.0827 39.3213 56.0701 39.3189 54.7831C39.3162 53.3868 39.267 53.233 38.7325 52.9537C38.2512 52.7022 38.0747 52.7281 37.2034 53.1784ZM45.86 53.1411C45.3258 53.4216 45.1556 53.6031 45.1556 53.8928C45.1556 54.4733 45.6471 54.4728 45.9497 53.892C46.2451 53.3249 46.7393 53.2514 47.0005 53.7358C47.2564 54.2106 47.0996 54.4587 46.4056 54.6774C45.354 55.0086 45.0757 55.2582 45.0757 55.8695C45.0757 56.8679 45.9945 57.3681 46.7998 56.8081C47.1231 56.5832 47.1797 56.5832 47.4062 56.8081C47.712 57.1117 47.7008 57.1117 48.2805 56.814C48.8549 56.5191 48.8632 56.4555 48.3525 56.2626C47.9696 56.1182 47.9529 56.0552 47.9529 54.7704C47.9529 53.5103 47.9273 53.4092 47.5317 53.1002C46.9936 52.68 46.7259 52.6865 45.86 53.1411ZM49.9509 52.9139C49.364 53.1659 48.999 53.7196 48.999 54.3582C48.999 54.7404 49.117 55.0994 49.3152 55.3209C49.489 55.5153 49.5593 55.7007 49.4714 55.7329C48.8796 55.9505 48.8344 56.0804 49.1862 56.5529L49.5326 57.0182L49.1424 57.3823C48.6693 57.8236 48.6506 58.1548 49.0689 58.683C49.964 59.8126 52.382 59.0726 52.6833 57.5767C52.7645 57.1736 52.7048 56.9987 52.3736 56.6699C52.0237 56.3225 51.8214 56.2626 50.9971 56.2626C50.2447 56.2626 50.0308 56.2099 50.0308 56.0246C50.0308 55.8651 50.1916 55.7865 50.5183 55.7865C51.5965 55.7865 52.407 54.8815 52.1697 53.9426C52.0993 53.6645 52.1406 53.5647 52.3255 53.5647C52.4639 53.5647 52.6561 53.4181 52.7528 53.2387C52.9195 52.9294 52.889 52.914 52.159 52.9386C51.7357 52.9529 51.1377 52.9223 50.83 52.8706C50.5223 52.8188 50.1267 52.8383 49.9509 52.9139ZM54.0919 53.0207C53.3552 53.3814 52.8503 54.375 52.9513 55.2647C53.141 56.936 54.645 57.5829 55.8831 56.5256C56.4071 56.0781 56.2831 55.6446 55.7391 56.0228C55.0133 56.5277 54.1463 56.1433 53.8779 55.1979L53.7333 54.6885L54.9589 54.6425C56.1653 54.5971 56.1856 54.5893 56.2354 54.1583C56.2722 53.8417 56.1539 53.589 55.8082 53.2457C55.2769 52.7182 54.8291 52.6595 54.0919 53.0207ZM57.2637 52.9691C56.7402 53.1358 56.5388 53.5647 56.984 53.5647C57.1792 53.5647 57.2238 53.828 57.2238 54.9824C57.2238 56.2606 57.1923 56.4099 56.9041 56.5007C56.2599 56.7037 56.6112 56.8974 57.6234 56.8974C58.1948 56.8974 58.6623 56.8617 58.6623 56.8181C58.6623 56.7744 58.5185 56.5959 58.3427 56.4213C58.0872 56.1677 58.023 55.8924 58.023 55.0502C58.023 53.8878 58.2277 53.579 59.0049 53.5698C59.5412 53.5633 59.6214 53.7833 59.6214 55.2588C59.6214 56.3175 59.5856 56.4604 59.3017 56.534C58.6401 56.7059 59.0194 56.8974 60.021 56.8974C60.9983 56.8974 61.3594 56.7281 60.8202 56.5226C60.6353 56.4523 60.5805 56.1468 60.5805 55.1884C60.5805 53.821 60.7123 53.5647 61.4156 53.5647C61.9743 53.5647 62.1789 54.0143 62.1789 55.2414C62.1789 55.8924 62.1004 56.1819 61.8592 56.4213C61.6834 56.5959 61.5395 56.7744 61.5395 56.8181C61.5395 56.8617 62.007 56.8974 62.5785 56.8974C63.5906 56.8974 63.9419 56.7037 63.2978 56.5007C63.0094 56.4097 62.9781 56.2606 62.9781 54.9751C62.9781 53.6739 62.944 53.5165 62.5857 53.1608C62.1172 52.6955 61.6325 52.6677 60.9713 53.0681C60.4948 53.3565 60.4738 53.3565 60.1144 53.0675C59.642 52.6877 59.1925 52.6933 58.5425 53.0869C58.0244 53.4005 58.023 53.4005 58.023 53.0862C58.023 52.7369 58.0025 52.7338 57.2637 52.9691ZM64.944 53.0823C64.2663 53.4924 63.9372 54.1657 63.9372 55.1414C63.9372 55.7999 64.0191 56.0314 64.4036 56.4585C64.7995 56.8984 64.9789 56.9768 65.5894 56.9768C66.131 56.9768 66.411 56.8816 66.7215 56.5921C67.3643 55.9924 67.251 55.5286 66.584 56.0297C65.919 56.5289 65.053 56.0808 64.8109 55.1121L64.7017 54.6756L65.798 54.6732C66.401 54.6718 66.9938 54.6082 67.1156 54.5315C67.4189 54.3409 67.2256 53.6412 66.7352 53.1543C66.2653 52.6877 65.6372 52.6625 64.944 53.0823ZM68.213 52.978C67.5629 53.1586 67.4217 53.4779 67.9332 53.6107C68.2195 53.685 68.2529 53.8272 68.2529 54.9726C68.2529 56.089 68.2123 56.2731 67.9332 56.4213C67.35 56.7313 67.6011 56.8974 68.6525 56.8974C69.6646 56.8974 70.016 56.7037 69.3718 56.5007C69.0876 56.4112 69.0521 56.2606 69.0521 55.1451C69.0521 53.9259 69.0651 53.8835 69.5078 53.6563C69.9105 53.4495 70.0035 53.4501 70.3071 53.6612C70.6088 53.871 70.6506 54.0513 70.6506 55.1438C70.6506 56.1028 70.5957 56.4083 70.4108 56.4788C69.8624 56.6876 70.2227 56.8974 71.1301 56.8974C72.1585 56.8974 72.2715 56.8057 71.7695 56.3788C71.4963 56.1466 71.4498 55.9106 71.4498 54.7566C71.4498 53.6176 71.3997 53.3563 71.1301 53.0886C70.7538 52.715 70.0398 52.6755 69.6021 53.0042C69.2029 53.3041 69.0521 53.3054 69.0521 53.0093C69.0521 52.7444 69.0529 52.7444 68.213 52.978ZM51.0607 53.6001C51.4061 54.0897 51.3714 54.7296 50.9804 55.0808C50.5637 55.4552 50.1736 55.2482 49.9704 54.545C49.8622 54.1705 49.8918 53.9535 50.0927 53.649C50.4196 53.1538 50.7348 53.1378 51.0607 53.6001ZM55.0545 53.4966C55.5222 53.9612 55.3635 54.1995 54.5863 54.1995C54.1907 54.1995 53.8671 54.1506 53.8671 54.0907C53.8671 53.9389 54.5358 53.2473 54.6827 53.2473C54.7491 53.2473 54.9163 53.3595 55.0545 53.4966ZM66.0859 53.5547C66.4699 53.9759 66.2757 54.1995 65.5262 54.1995C64.8001 54.1995 64.6801 53.8916 65.2515 53.4944C65.7031 53.1803 65.7475 53.1835 66.0859 53.5547ZM13.8947 53.9829C14.2866 54.4776 14.3194 55.147 13.9834 55.7921C13.7171 56.3034 13.0478 56.5616 12.6428 56.3091C12.3223 56.1093 12.1943 54.13 12.4797 53.7885C12.7913 53.4159 13.5254 53.5166 13.8947 53.9829ZM22.6977 55.4436C22.6977 55.9373 22.6229 56.0868 22.3035 56.2312C21.9885 56.3737 21.8603 56.3607 21.6641 56.166C21.3907 55.8946 21.37 55.7876 21.5412 55.5318C21.6344 55.3928 22.4809 54.8688 22.6577 54.8407C22.6796 54.8372 22.6977 55.1086 22.6977 55.4436ZM9.43073 55.5536C9.43073 56.2845 8.88551 56.5604 8.39175 56.0792C8.07238 55.768 8.07255 55.7673 8.52058 55.3804C9.16299 54.8254 9.43073 54.8764 9.43073 55.5536ZM38.4918 55.5882C38.4464 56.1327 38.4015 56.1833 37.9627 56.1833C37.5592 56.1833 37.4832 56.1211 37.4832 55.7913C37.4832 55.5323 37.6189 55.3309 37.8828 55.1984C38.4812 54.8978 38.5459 54.9392 38.4918 55.5882ZM47.1233 55.5882C47.0779 56.1327 47.033 56.1833 46.5942 56.1833C45.9702 56.1833 45.8421 55.621 46.381 55.2465C46.981 54.8291 47.1791 54.9203 47.1233 55.5882ZM51.6978 57.3055C52.0197 57.6252 52.0138 57.7349 51.6499 58.1812C51.1374 58.8095 49.7111 58.5897 49.7111 57.8823C49.7111 57.1542 51.1304 56.7422 51.6978 57.3055Z" clip-rule="evenodd" fill-rule="evenodd"></path>
</svg>
