<svg xmlns="http://www.w3.org/2000/svg" fill="none" viewBox="0 0 162 91" height="91" width="162">
<path fill="white" d="M91.3452 37.1549L91.3122 36.8116C91.2461 35.0788 90.5109 34.7028 87.3389 34.7028C83.2004 34.7028 82.3001 35.0788 82.3001 36.8606C82.3001 38.3237 82.8039 38.8714 84.3404 39.0185C84.7038 39.043 85.1086 39.092 85.5712 39.092C86.009 39.1166 86.8102 39.1656 88.008 39.2147C92.4108 39.3863 93.716 39.6397 94.7568 40.5306C95.5911 41.2499 95.9215 42.0918 95.9215 43.6775C95.9215 45.9334 95.5498 46.9959 94.5503 47.6907C93.146 48.6552 91.5435 48.9086 87.1076 48.9086C82.7296 48.9086 81.2923 48.7615 79.9954 48.1157C78.6572 47.4455 77.9551 46.2113 77.9551 44.3722C77.9551 44.2251 77.9881 43.9472 77.9881 43.5794H82.0605V43.9472C82.0605 45.729 82.7296 46.3502 84.7617 46.3748H86.7359L87.3389 46.3993C91.0809 46.3993 91.7169 46.0233 91.7169 43.9472C91.7169 42.3125 91.18 41.9365 88.578 41.8384L86.2403 41.7158C81.697 41.5196 80.8627 41.397 79.7311 40.6777C78.5581 39.9585 78.0625 38.8714 78.0625 37.114C78.0625 35.0543 78.5994 33.8446 79.7972 33.2234C81.3005 32.4551 82.87 32.2344 87.0085 32.2344C90.7174 32.2344 92.2869 32.4305 93.4847 33.0517C94.7815 33.722 95.3846 34.8336 95.3846 36.5664C95.3846 36.7135 95.3846 36.9179 95.3846 37.1631H91.3452V37.1549Z"></path>
<path fill="white" d="M106.744 48.8268H102.465V32.3242H106.744V48.8268Z"></path>
<path fill="white" d="M132.822 40.0566L132.855 40.5307L132.888 43.1299V43.3506C132.888 46.1051 132.384 47.1922 130.748 48.0341C129.344 48.7779 127.775 48.9496 123.306 48.9496C118.762 48.9496 117.226 48.7289 115.723 47.7889C114.021 46.7018 113.418 45.3368 113.418 42.3616V42.0183C113.451 41.1764 113.451 40.5552 113.451 40.2119C113.484 37.2613 113.55 36.7708 113.914 35.7001C114.277 34.6866 115.012 33.8447 115.946 33.2971C117.614 32.3816 118.853 32.21 123.264 32.21C128.303 32.21 129.278 32.308 130.707 33.0028C131.574 33.4278 132.21 34.1226 132.475 34.9073C132.739 35.6756 132.772 35.8717 132.805 37.3103H128.568L128.535 36.9834C128.369 35.1034 127.766 34.85 123.223 34.85C120.786 34.85 119.613 34.9972 118.944 35.4222C118.077 35.9698 117.813 36.6891 117.813 38.7162L117.779 40.3754L117.813 42.5087C117.846 44.4622 118.044 45.157 118.845 45.6556C119.58 46.1215 120.778 46.2768 123.454 46.2768C127.965 46.2768 128.634 45.8763 128.634 42.9828C128.634 42.8602 128.634 42.6886 128.634 42.4106H122.992V40.0566H132.822Z"></path>
<path fill="white" d="M29.0117 42.3867C30.3912 43.1877 31.1264 44.2748 34.0093 44.2748C36.8922 44.2748 38.7012 42.3867 42.121 42.3867C45.5739 42.3867 47.4655 44.2748 50.9266 44.2748C54.3464 44.2748 55.6929 42.3867 58.997 42.3867C62.3425 42.3867 64.1433 44.2748 67.1088 44.2748C70.0742 44.2748 71.0655 43.0897 72.7589 42.3867V46.8168C71.0655 47.5279 70.066 48.6641 67.1088 48.6641C64.1515 48.6641 62.3425 46.7678 58.997 46.7678C55.6929 46.7678 54.3464 48.6641 50.9266 48.6641C47.4655 48.6641 45.5821 46.7678 42.121 46.7678C38.7012 46.7678 36.8922 48.6641 34.0093 48.6641C31.1264 48.6641 30.3995 47.6178 29.0117 46.8168V42.3867Z" clip-rule="evenodd" fill-rule="evenodd"></path>
<path fill="white" d="M29.0117 38.9941V41.4217C30.3912 42.2227 31.1264 43.2444 34.0093 43.2444C36.8922 43.2444 38.7012 41.3727 42.121 41.3727C45.5739 41.3727 47.4655 43.2444 50.9266 43.2444C54.3464 43.2444 55.6929 41.3727 58.997 41.3727C62.3425 41.3727 64.1433 43.2444 67.1088 43.2444C70.0742 43.2444 71.0655 42.1328 72.7589 41.4217V38.9941C71.0655 39.7052 70.066 40.8659 67.1088 40.8659C64.1515 40.8659 62.3425 38.9941 58.997 38.9941C55.6929 38.9941 54.3464 40.8659 50.9266 40.8659C47.4655 40.8659 45.5821 38.9941 42.121 38.9941C38.7012 38.9941 36.8922 40.8659 34.0093 40.8659C31.1264 40.8659 30.3995 39.7952 29.0117 38.9941Z" clip-rule="evenodd" fill-rule="evenodd"></path>
<path fill="white" d="M29.0117 36.5176V37.9398C30.3912 38.7163 31.1264 39.7625 34.0093 39.7625C36.8922 39.7625 38.7012 37.8907 42.121 37.8907C45.5739 37.8907 47.4655 39.7625 50.9266 39.7625C54.3464 39.7625 55.6929 37.8907 58.997 37.8907C62.3425 37.8907 64.1433 39.7625 67.1088 39.7625C70.0742 39.7625 71.0655 38.6509 72.7589 37.9398V36.5176C71.0655 37.2287 70.066 38.3893 67.1088 38.3893C64.1515 38.3893 62.3425 36.5176 58.997 36.5176C55.6929 36.5176 54.3464 38.3893 50.9266 38.3893C47.4655 38.3893 45.5821 36.5176 42.121 36.5176C38.7012 36.5176 36.8922 38.3893 34.0093 38.3893C31.1264 38.3893 30.3995 37.3186 29.0117 36.5176Z" clip-rule="evenodd" fill-rule="evenodd"></path>
<path fill="white" d="M73.6262 47.6006C73.9648 47.6006 74.2622 47.715 74.4935 47.9439C74.7248 48.1564 74.8404 48.4343 74.8404 48.7531C74.8404 49.0473 74.7083 49.3252 74.4852 49.5295C74.2457 49.7421 73.9401 49.8647 73.6262 49.8647C73.304 49.8647 72.9984 49.7421 72.7671 49.5214C72.5358 49.3089 72.4201 49.031 72.4201 48.7285C72.4201 48.4261 72.5523 48.14 72.7919 47.9193C73.0066 47.7068 73.2957 47.6006 73.6262 47.6006ZM73.6179 47.3799C73.0975 47.3799 72.6432 47.6251 72.3788 48.0338C72.2384 48.2626 72.1641 48.4915 72.1641 48.7367C72.1641 49.0882 72.3045 49.4233 72.5771 49.6767C72.8579 49.9382 73.2214 50.0854 73.6096 50.0854C73.9896 50.0854 74.3531 49.9464 74.6422 49.693C74.9148 49.4478 75.0717 49.1127 75.0717 48.7367C75.0717 48.3771 74.9313 48.0419 74.6587 47.7886C74.3861 47.5188 74.0227 47.3799 73.6179 47.3799ZM73.0231 47.952V49.456H73.4114V48.843H73.6014L73.9153 49.456H74.3531L73.9896 48.7857C74.2126 48.7367 74.3448 48.5814 74.3448 48.3852C74.3448 48.0992 74.1135 47.952 73.6509 47.952H73.0231ZM73.4114 48.1891H73.5849C73.8244 48.1891 73.9401 48.2545 73.9401 48.4098C73.9401 48.5569 73.8327 48.6223 73.6096 48.6223H73.4196V48.1891H73.4114Z"></path>
<path fill="white" d="M29.334 56.4942H30.0857C30.1022 56.8865 30.2344 57.1808 30.4987 57.3688C30.763 57.5568 31.1513 57.6548 31.6717 57.6548C32.1177 57.6548 32.4647 57.5813 32.7125 57.4342C32.9603 57.287 33.076 57.0745 33.076 56.8048C33.076 56.6086 33.0099 56.4533 32.8777 56.3471C32.7455 56.2408 32.5225 56.1509 32.2086 56.1019L30.953 55.8812C30.4491 55.7913 30.0774 55.6441 29.8461 55.4316C29.6148 55.2191 29.4992 54.9249 29.4992 54.557C29.4992 54.0748 29.6809 53.6988 30.0526 53.4373C30.4244 53.1757 30.9448 53.0449 31.6304 53.0449C32.2747 53.0449 32.7703 53.1839 33.1173 53.4536C33.4642 53.7315 33.6377 54.1157 33.6459 54.6306H32.9273C32.9025 54.3118 32.7786 54.0748 32.5638 53.9277C32.3408 53.7724 32.0104 53.6988 31.5726 53.6988C31.143 53.6988 30.8126 53.7642 30.5896 53.9032C30.3665 54.0421 30.2509 54.2383 30.2509 54.4917C30.2509 54.6796 30.317 54.8268 30.4409 54.9249C30.573 55.0229 30.8043 55.1129 31.143 55.1782L32.2582 55.3989C32.8447 55.5134 33.2494 55.6687 33.4807 55.873C33.712 56.0773 33.8277 56.3716 33.8277 56.7557C33.8277 57.2543 33.6377 57.6385 33.2577 57.9082C32.8777 58.1861 32.3408 58.3169 31.6386 58.3169C30.8869 58.3169 30.317 58.1616 29.9287 57.8592C29.5405 57.5568 29.3422 57.099 29.334 56.4942Z"></path>
<path fill="white" d="M43.4923 53.1846V56.3232C43.4923 56.9771 43.3023 57.4676 42.9224 57.8108C42.5424 58.1541 41.9889 58.3176 41.2538 58.3176C40.5186 58.3176 39.9651 58.146 39.5934 57.8108C39.2134 57.4676 39.0234 56.9771 39.0234 56.3232V53.1846H39.7338V56.0208C39.7338 56.5685 39.8577 56.9771 40.1056 57.2387C40.3534 57.5002 40.7333 57.631 41.2538 57.631C41.7742 57.631 42.1624 57.5002 42.4102 57.2387C42.658 56.9771 42.7819 56.5685 42.7819 56.0208V53.1846H43.4923Z"></path>
<path fill="white" d="M48.7383 56.4942H49.49C49.5065 56.8865 49.6387 57.1808 49.903 57.3688C50.1673 57.5568 50.5556 57.6548 51.076 57.6548C51.522 57.6548 51.869 57.5813 52.1168 57.4342C52.3646 57.287 52.4802 57.0745 52.4802 56.8048C52.4802 56.6086 52.4142 56.4533 52.282 56.3471C52.1498 56.2408 51.9268 56.1509 51.6129 56.1019L50.3656 55.8812C49.8617 55.7913 49.49 55.6441 49.2587 55.4316C49.0274 55.2191 48.9118 54.9249 48.9118 54.557C48.9118 54.0748 49.0935 53.6988 49.4652 53.4373C49.8369 53.1757 50.3573 53.0449 51.0429 53.0449C51.6873 53.0449 52.1829 53.1839 52.5298 53.4536C52.8767 53.7315 53.0502 54.1157 53.0585 54.6306H52.3481C52.3233 54.3118 52.1994 54.0748 51.9846 53.9277C51.7616 53.7724 51.4312 53.6988 50.9934 53.6988C50.5638 53.6988 50.2334 53.7642 50.0104 53.9032C49.7791 54.0421 49.6717 54.2383 49.6717 54.4917C49.6717 54.6796 49.7378 54.8268 49.8617 54.9249C49.9939 55.0229 50.2252 55.1129 50.5638 55.1782L51.6707 55.3989C52.2572 55.5134 52.662 55.6687 52.8933 55.873C53.1246 56.0773 53.2402 56.3716 53.2402 56.7557C53.2402 57.2543 53.0502 57.6385 52.6702 57.9082C52.2903 58.1861 51.7451 58.3169 51.0512 58.3169C50.2995 58.3169 49.7295 58.1616 49.3413 57.8592C48.9448 57.5568 48.7465 57.099 48.7383 56.4942Z"></path>
<path fill="white" d="M62.3186 58.0308C62.1369 58.1289 61.9469 58.2025 61.7239 58.2434C61.5091 58.2842 61.2447 58.3087 60.9309 58.3087C60.08 58.3087 59.4109 58.0717 58.9153 57.5976C58.4197 57.1236 58.1719 56.486 58.1719 55.6768C58.1719 54.8676 58.4197 54.2301 58.9153 53.756C59.4109 53.282 60.0883 53.0449 60.9391 53.0449C61.7899 53.0449 62.459 53.282 62.9547 53.756C63.4503 54.2301 63.6981 54.8758 63.6981 55.6768C63.6981 56.0855 63.6237 56.4697 63.4833 56.813C63.3429 57.1563 63.1364 57.4423 62.8638 57.663L63.5494 58.2025L63.1446 58.7092L62.3186 58.0308ZM61.7239 57.5404L61.1952 57.1154L61.5834 56.625L62.3269 57.2216C62.5334 57.0582 62.6903 56.8457 62.7977 56.5841C62.9051 56.3144 62.9629 56.0201 62.9629 55.685C62.9629 55.0638 62.7812 54.5816 62.426 54.2383C62.0708 53.895 61.5752 53.7152 60.9391 53.7152C60.3031 53.7152 59.8074 53.8868 59.4522 54.2383C59.097 54.5897 58.9153 55.072 58.9153 55.685C58.9153 56.3062 59.097 56.7966 59.4522 57.1399C59.8157 57.4832 60.3196 57.6548 60.9804 57.6548C61.1374 57.6548 61.2778 57.6467 61.4017 57.6303C61.5173 57.6058 61.6247 57.5813 61.7239 57.5404Z"></path>
<path fill="white" d="M73.338 53.1846V56.3232C73.338 56.9771 73.148 57.4676 72.7681 57.8108C72.3881 58.1541 71.8346 58.3176 71.0995 58.3176C70.3643 58.3176 69.8108 58.146 69.4391 57.8108C69.0591 57.4676 68.8691 56.9771 68.8691 56.3232V53.1846H69.5795V56.0208C69.5795 56.5685 69.7034 56.9771 69.9513 57.2387C70.1991 57.5002 70.579 57.631 71.0995 57.631C71.6199 57.631 72.0081 57.5002 72.2559 57.2387C72.5037 56.9853 72.6276 56.5766 72.6276 56.029V53.1927H73.338V53.1846Z"></path>
<path fill="white" d="M78.8145 58.1865V53.1924H82.829V53.8381H79.5248V55.3094H82.6225V55.9632H79.5248V57.5162H82.8786V58.1865H78.8145Z"></path>
<path fill="white" d="M88.082 58.1865V53.1924H88.7924V55.2113H91.8736V53.1924H92.584V58.1865H91.8736V55.8652H88.7924V58.1865H88.082Z"></path>
<path fill="white" d="M97.4238 58.1865L99.8193 53.1924H100.571L102.818 58.1865H102.074L101.43 56.7643H98.8529L98.1755 58.1865H97.4238ZM99.1503 56.1104H101.133L100.166 53.9771L99.1503 56.1104Z"></path>
<path fill="white" d="M107.709 58.1865V53.1924H108.675L111.856 57.459V53.1924H112.55V58.1865H111.583L108.403 53.9198V58.1865H107.709Z"></path>
<path fill="white" d="M118.018 58.1865V53.1924H118.984L122.164 57.459V53.1924H122.858V58.1865H121.892L118.711 53.9198V58.1865H118.018Z"></path>
<path fill="white" d="M127.699 58.1865L130.095 53.1924H130.846L133.093 58.1865H132.35L131.706 56.7643H129.128L128.459 58.1865H127.699ZM129.426 56.1104H131.408L130.45 53.9771L129.426 56.1104Z"></path>
</svg>
